<svg width="32" height="32" viewBox="0 0 32 32" fill="none" xmlns="http://www.w3.org/2000/svg">
<path d="M30 4.65601L28.72 5.03101L5.812 12H2V20H5.813L7.781 20.594L7.751 20.687V20.719C7.109 22.831 8.298 25.179 10.501 25.843C10.511 25.846 10.523 25.84 10.531 25.843C12.654 26.488 15.004 25.313 15.657 23.093L15.687 22.999L28.72 26.969L30 27.343V4.65601ZM28 7.34401V24.656L6.28 18.03L6.157 18H4V14H6.156L6.281 13.97L28 7.34401ZM9.687 21.187L13.781 22.407L13.751 22.5V22.53C13.407 23.7 12.165 24.272 11.095 23.937C9.925 23.594 9.323 22.383 9.657 21.312V21.282L9.687 21.187Z" fill="#FFA629"/>
</svg>
