<svg width="32" height="32" viewBox="0 0 32 32" fill="none" xmlns="http://www.w3.org/2000/svg">
<path d="M6.66667 17.3333V29.3333H4V17.3333H6.66667ZM30.6667 17.3333V20H28V29.3333H25.3333V20H22.6667V17.3333H30.6667ZM16 14.6667C17.8682 14.6768 19.6965 15.2073 21.28 16.1987L23.2093 14.2653C21.0927 12.7943 18.5776 12.004 16 12C13.4569 12.0047 10.976 12.7863 8.88933 14.24L10.8213 16.1773C12.3725 15.1999 14.1666 14.6766 16 14.6667Z" fill="white"/>
<path d="M15.9996 9.33317C19.2827 9.34055 22.4766 10.4015 25.1116 12.3598L27.0143 10.4532C23.8648 8.00331 19.9897 6.6711 15.9996 6.6665C12.0441 6.67122 8.20312 7.99533 5.08496 10.4292L6.98629 12.3358C9.59009 10.3925 12.7506 9.33966 15.9996 9.33317Z" fill="white"/>
<path d="M16.0003 4.00014C20.6977 4.00076 25.2543 5.60474 28.9163 8.54681L30.8189 6.64147C26.6613 3.21396 21.4419 1.33764 16.0537 1.3335C10.6654 1.32937 5.44313 3.19768 1.28027 6.61881L3.18294 8.52414C6.81421 5.59814 11.3368 4.00183 16.0003 4.00014ZM16.0003 17.3335C14.8136 17.3335 13.6535 17.6854 12.6669 18.3447C11.6802 19.0039 10.9111 19.941 10.457 21.0374C10.0029 22.1337 9.88405 23.3401 10.1156 24.504C10.3471 25.6679 10.9185 26.737 11.7576 27.5761C12.5967 28.4152 13.6658 28.9867 14.8297 29.2182C15.9936 29.4497 17.2 29.3309 18.2964 28.8768C19.3927 28.4226 20.3298 27.6536 20.9891 26.6669C21.6484 25.6802 22.0003 24.5202 22.0003 23.3335C22.0003 21.7422 21.3681 20.2161 20.2429 19.0908C19.1177 17.9656 17.5916 17.3335 16.0003 17.3335ZM16.0003 26.6668C15.341 26.6668 14.6965 26.4713 14.1484 26.105C13.6002 25.7388 13.173 25.2182 12.9207 24.6091C12.6684 24 12.6024 23.3298 12.731 22.6832C12.8596 22.0366 13.1771 21.4426 13.6433 20.9764C14.1094 20.5103 14.7034 20.1928 15.35 20.0642C15.9966 19.9356 16.6668 20.0016 17.2759 20.2539C17.885 20.5062 18.4056 20.9334 18.7718 21.4816C19.1381 22.0297 19.3336 22.6742 19.3336 23.3335C19.3336 24.2175 18.9824 25.0654 18.3573 25.6905C17.7322 26.3156 16.8843 26.6668 16.0003 26.6668Z" fill="white"/>
</svg>
