<svg width="265" height="258" viewBox="0 0 265 258" fill="none" xmlns="http://www.w3.org/2000/svg">
<g filter="url(#filter0_d_821_10785)">
<rect x="100.712" y="70" width="64.1574" height="57.9997" rx="28.9998" fill="url(#paint0_linear_821_10785)"/>
<g filter="url(#filter1_f_821_10785)">
<rect x="100" y="70.7529" width="62.491" height="56.4932" rx="28.2466" fill="url(#paint1_linear_821_10785)"/>
<rect x="100.25" y="71.0029" width="61.991" height="55.9932" rx="27.9966" stroke="url(#paint2_linear_821_10785)" stroke-width="0.5"/>
</g>
<g filter="url(#filter2_f_821_10785)">
<path d="M135.033 94.9351V90.3389C135.033 88.2639 135.593 87.2144 139.533 87.2144H144.476V79.4937H136.228C126.121 79.4937 122.786 83.2816 122.786 89.7839V94.9351H116.146V102.656H122.786V125.818H135.033V102.656H143.354L144.476 94.9351H135.033Z" fill="#13488C" fill-opacity="0.5"/>
</g>
<mask id="path-5-inside-1_821_10785" fill="white">
<path d="M146.143 78.7402V86.8379H141.49C137.783 86.8379 137.255 87.9382 137.255 90.1143V94.9346H146.143L145.087 103.032H137.255V127.324H137.248V127.491C134.209 128.225 128.172 128.064 125.727 127.572V126.503H125.729V103.032H119.479V94.9346H125.729V89.5322C125.729 82.7129 128.867 78.7402 138.38 78.7402H146.143Z"/>
</mask>
<path d="M146.143 78.7402V86.8379H141.49C137.783 86.8379 137.255 87.9382 137.255 90.1143V94.9346H146.143L145.087 103.032H137.255V127.324H137.248V127.491C134.209 128.225 128.172 128.064 125.727 127.572V126.503H125.729V103.032H119.479V94.9346H125.729V89.5322C125.729 82.7129 128.867 78.7402 138.38 78.7402H146.143Z" fill="white" fill-opacity="0.9"/>
<path d="M146.143 78.7402H146.643V78.2402H146.143V78.7402ZM146.143 86.8379V87.3379H146.643V86.8379H146.143ZM137.255 90.1143L136.755 90.1142V90.1143H137.255ZM137.255 94.9346H136.755V95.4346H137.255V94.9346ZM146.143 94.9346L146.638 94.9992L146.712 94.4346H146.143V94.9346ZM145.087 103.032V103.532H145.526L145.583 103.097L145.087 103.032ZM137.255 103.032V102.532H136.755V103.032H137.255ZM137.255 127.324V127.824H137.755V127.324H137.255ZM137.248 127.324V126.824H136.748V127.324H137.248ZM137.248 127.491L137.365 127.977L137.748 127.885V127.491H137.248ZM125.727 127.572H125.227V127.982L125.628 128.062L125.727 127.572ZM125.727 126.503V126.003H125.227V126.503H125.727ZM125.729 126.503V127.003H126.229V126.503H125.729ZM125.729 103.032H126.229V102.532H125.729V103.032ZM119.479 103.032H118.979V103.532H119.479V103.032ZM119.479 94.9346V94.4346H118.979V94.9346H119.479ZM125.729 94.9346V95.4346H126.229V94.9346H125.729ZM125.729 89.5322L125.229 89.5322V89.5322H125.729ZM146.143 78.7402H145.643V86.8379H146.143H146.643V78.7402H146.143ZM146.143 86.8379V86.3379H141.49V86.8379V87.3379H146.143V86.8379ZM141.49 86.8379V86.3379C139.625 86.3379 138.39 86.6059 137.644 87.2919C136.877 87.9969 136.755 89.0207 136.755 90.1142L137.255 90.1143L137.755 90.1143C137.755 89.0318 137.897 88.4174 138.321 88.0282C138.765 87.62 139.648 87.3379 141.49 87.3379V86.8379ZM137.255 90.1143H136.755V94.9346H137.255H137.755V90.1143H137.255ZM137.255 94.9346V95.4346H146.143V94.9346V94.4346H137.255V94.9346ZM146.143 94.9346L145.647 94.8699L144.591 102.968L145.087 103.032L145.583 103.097L146.638 94.9992L146.143 94.9346ZM145.087 103.032V102.532H137.255V103.032V103.532H145.087V103.032ZM137.255 103.032H136.755V127.324H137.255H137.755V103.032H137.255ZM137.255 127.324V126.824H137.248V127.324V127.824H137.255V127.324ZM137.248 127.324H136.748V127.491H137.248H137.748V127.324H137.248ZM137.248 127.491L137.131 127.005C135.672 127.358 133.452 127.501 131.267 127.491C129.085 127.481 127.002 127.319 125.825 127.082L125.727 127.572L125.628 128.062C126.897 128.318 129.055 128.481 131.263 128.491C133.468 128.501 135.786 128.359 137.365 127.977L137.248 127.491ZM125.727 127.572H126.227V126.503H125.727H125.227V127.572H125.727ZM125.727 126.503V127.003H125.729V126.503V126.003H125.727V126.503ZM125.729 126.503H126.229V103.032H125.729H125.229V126.503H125.729ZM125.729 103.032V102.532H119.479V103.032V103.532H125.729V103.032ZM119.479 103.032H119.979V94.9346H119.479H118.979V103.032H119.479ZM119.479 94.9346V95.4346H125.729V94.9346V94.4346H119.479V94.9346ZM125.729 94.9346H126.229V89.5322H125.729H125.229V94.9346H125.729ZM125.729 89.5322L126.229 89.5322C126.229 86.1904 126.998 83.6559 128.829 81.9442C130.668 80.2244 133.678 79.2402 138.38 79.2402V78.7402V78.2402C133.569 78.2402 130.254 79.2424 128.146 81.2138C126.029 83.1932 125.229 86.0548 125.229 89.5322L125.729 89.5322ZM138.38 78.7402V79.2402H146.143V78.7402V78.2402H138.38V78.7402Z" fill="url(#paint3_linear_821_10785)" mask="url(#path-5-inside-1_821_10785)"/>
</g>
<defs>
<filter id="filter0_d_821_10785" x="0" y="0" width="264.869" height="258" filterUnits="userSpaceOnUse" color-interpolation-filters="sRGB">
<feFlood flood-opacity="0" result="BackgroundImageFix"/>
<feColorMatrix in="SourceAlpha" type="matrix" values="0 0 0 0 0 0 0 0 0 0 0 0 0 0 0 0 0 0 127 0" result="hardAlpha"/>
<feOffset dy="30"/>
<feGaussianBlur stdDeviation="50"/>
<feComposite in2="hardAlpha" operator="out"/>
<feColorMatrix type="matrix" values="0 0 0 0 0 0 0 0 0 0 0 0 0 0 0 0 0 0 0.15 0"/>
<feBlend mode="normal" in2="BackgroundImageFix" result="effect1_dropShadow_821_10785"/>
<feBlend mode="normal" in="SourceGraphic" in2="effect1_dropShadow_821_10785" result="shape"/>
</filter>
<filter id="filter1_f_821_10785" x="98" y="68.7529" width="66.4912" height="60.4932" filterUnits="userSpaceOnUse" color-interpolation-filters="sRGB">
<feFlood flood-opacity="0" result="BackgroundImageFix"/>
<feBlend mode="normal" in="SourceGraphic" in2="BackgroundImageFix" result="shape"/>
<feGaussianBlur stdDeviation="1" result="effect1_foregroundBlur_821_10785"/>
</filter>
<filter id="filter2_f_821_10785" x="111.146" y="74.4937" width="38.3291" height="56.3242" filterUnits="userSpaceOnUse" color-interpolation-filters="sRGB">
<feFlood flood-opacity="0" result="BackgroundImageFix"/>
<feBlend mode="normal" in="SourceGraphic" in2="BackgroundImageFix" result="shape"/>
<feGaussianBlur stdDeviation="2.5" result="effect1_foregroundBlur_821_10785"/>
</filter>
<linearGradient id="paint0_linear_821_10785" x1="131.541" y1="126.493" x2="132.562" y2="73.1969" gradientUnits="userSpaceOnUse">
<stop stop-color="#004DAE"/>
<stop offset="0.869762" stop-color="#4497FF"/>
</linearGradient>
<linearGradient id="paint1_linear_821_10785" x1="131.245" y1="76.9672" x2="131.245" y2="121.032" gradientUnits="userSpaceOnUse">
<stop stop-color="#1778F2"/>
<stop offset="1" stop-color="#1778F2" stop-opacity="0.62"/>
</linearGradient>
<linearGradient id="paint2_linear_821_10785" x1="131.245" y1="70.7529" x2="131.245" y2="127.246" gradientUnits="userSpaceOnUse">
<stop stop-color="#7CB4FB"/>
<stop offset="1" stop-color="#0B6280"/>
</linearGradient>
<linearGradient id="paint3_linear_821_10785" x1="132.811" y1="78.7402" x2="132.811" y2="127.992" gradientUnits="userSpaceOnUse">
<stop stop-color="white"/>
<stop offset="1" stop-color="white" stop-opacity="0"/>
</linearGradient>
</defs>
</svg>
