<svg width="265" height="264" viewBox="0 0 265 264" fill="none" xmlns="http://www.w3.org/2000/svg">
<g filter="url(#filter0_d_853_9216)">
<rect x="100.713" y="70" width="64.2867" height="64" rx="32" fill="url(#paint0_linear_853_9216)"/>
<g filter="url(#filter1_f_853_9216)">
<rect x="100" y="70.8308" width="62.6169" height="62.3377" rx="31.1688" fill="url(#paint1_linear_853_9216)"/>
<rect x="100.25" y="71.0808" width="62.1169" height="61.8377" rx="30.9188" stroke="url(#paint2_linear_853_9216)" stroke-width="0.5"/>
</g>
<g filter="url(#filter2_f_853_9216)">
<path d="M135.103 97.5145V92.4428C135.103 90.1532 135.665 88.9951 139.612 88.9951H144.565V80.4756H136.3C126.173 80.4756 122.832 84.6555 122.832 91.8305V97.5145H116.179V106.034H122.832V131.592H135.103V106.034H143.441L144.565 97.5145H135.103Z" fill="#13488C" fill-opacity="0.5"/>
</g>
<mask id="path-5-inside-1_853_9216" fill="white">
<path d="M146.235 79.6444V88.58H141.573C137.858 88.58 137.329 89.7941 137.329 92.1952V97.5145H146.235L145.178 106.45H137.329V133.255H137.323V133.439C134.278 134.249 128.229 134.071 125.778 133.528V132.349H125.78V106.45H119.519V97.5145H125.78V91.5536C125.78 84.0286 128.925 79.6444 138.457 79.6444H146.235Z"/>
</mask>
<path d="M146.235 79.6444V88.58H141.573C137.858 88.58 137.329 89.7941 137.329 92.1952V97.5145H146.235L145.178 106.45H137.329V133.255H137.323V133.439C134.278 134.249 128.229 134.071 125.778 133.528V132.349H125.78V106.45H119.519V97.5145H125.78V91.5536C125.78 84.0286 128.925 79.6444 138.457 79.6444H146.235Z" fill="white" fill-opacity="0.9"/>
<path d="M146.235 79.6444H146.735V79.1444H146.235V79.6444ZM146.235 88.58V89.08H146.735V88.58H146.235ZM141.573 88.58L141.573 88.08L141.573 88.08L141.573 88.58ZM137.329 92.1952L136.829 92.1952V92.1952H137.329ZM137.329 97.5145H136.829V98.0145H137.329V97.5145ZM146.235 97.5145L146.732 97.5733L146.798 97.0145H146.235V97.5145ZM145.178 106.45V106.95H145.622L145.674 106.509L145.178 106.45ZM137.329 106.45V105.95H136.829V106.45H137.329ZM137.329 133.255V133.755H137.829V133.255H137.329ZM137.323 133.255V132.755H136.823V133.255H137.323ZM137.323 133.439L137.452 133.923L137.823 133.824V133.439H137.323ZM125.778 133.528H125.278V133.93L125.67 134.016L125.778 133.528ZM125.778 132.349V131.849H125.278V132.349H125.778ZM125.78 132.349V132.849H126.28V132.349H125.78ZM125.78 106.45H126.28V105.95H125.78V106.45ZM119.519 106.45H119.019V106.95H119.519V106.45ZM119.519 97.5145V97.0145H119.019V97.5145H119.519ZM125.78 97.5145V98.0145H126.28V97.5145H125.78ZM146.235 79.6444H145.735V88.58H146.235H146.735V79.6444H146.235ZM146.235 88.58V88.08H141.573V88.58V89.08H146.235V88.58ZM141.573 88.58L141.573 88.08C139.697 88.08 138.451 88.3784 137.703 89.1357C136.95 89.8973 136.829 90.996 136.829 92.1952L137.329 92.1952L137.829 92.1952C137.829 90.9933 137.973 90.2844 138.414 89.8387C138.859 89.3887 139.735 89.08 141.573 89.08L141.573 88.58ZM137.329 92.1952H136.829V97.5145H137.329H137.829V92.1952H137.329ZM137.329 97.5145V98.0145H146.235V97.5145V97.0145H137.329V97.5145ZM146.235 97.5145L145.739 97.4558L144.681 106.391L145.178 106.45L145.674 106.509L146.732 97.5733L146.235 97.5145ZM145.178 106.45V105.95H137.329V106.45V106.95H145.178V106.45ZM137.329 106.45H136.829V133.255H137.329H137.829V106.45H137.329ZM137.329 133.255V132.755H137.323V133.255V133.755H137.329V133.255ZM137.323 133.255H136.823V133.439H137.323H137.823V133.255H137.323ZM137.323 133.439L137.195 132.956C135.738 133.344 133.518 133.502 131.331 133.491C129.146 133.48 127.061 133.3 125.886 133.04L125.778 133.528L125.67 134.016C126.946 134.299 129.112 134.48 131.325 134.491C133.536 134.502 135.864 134.345 137.452 133.923L137.323 133.439ZM125.778 133.528H126.278V132.349H125.778H125.278V133.528H125.778ZM125.778 132.349V132.849H125.78V132.349V131.849H125.778V132.349ZM125.78 132.349H126.28V106.45H125.78H125.28V132.349H125.78ZM125.78 106.45V105.95H119.519V106.45V106.95H125.78V106.45ZM119.519 106.45H120.019V97.5145H119.519H119.019V106.45H119.519ZM119.519 97.5145V98.0145H125.78V97.5145V97.0145H119.519V97.5145ZM125.78 97.5145H126.28V91.5536H125.78H125.28V97.5145H125.78ZM125.78 91.5536H126.28C126.28 87.8475 127.057 85.0268 128.903 83.1254C130.747 81.2264 133.757 80.1444 138.457 80.1444V79.6444V79.1444C133.626 79.1444 130.297 80.2545 128.186 82.4288C126.076 84.6008 125.28 87.7346 125.28 91.5536H125.78ZM138.457 79.6444V80.1444H146.235V79.6444V79.1444H138.457V79.6444Z" fill="url(#paint3_linear_853_9216)" mask="url(#path-5-inside-1_853_9216)"/>
</g>
<defs>
<filter id="filter0_d_853_9216" x="0" y="0" width="265" height="264" filterUnits="userSpaceOnUse" color-interpolation-filters="sRGB">
<feFlood flood-opacity="0" result="BackgroundImageFix"/>
<feColorMatrix in="SourceAlpha" type="matrix" values="0 0 0 0 0 0 0 0 0 0 0 0 0 0 0 0 0 0 127 0" result="hardAlpha"/>
<feOffset dy="30"/>
<feGaussianBlur stdDeviation="50"/>
<feComposite in2="hardAlpha" operator="out"/>
<feColorMatrix type="matrix" values="0 0 0 0 0 0 0 0 0 0 0 0 0 0 0 0 0 0 0.15 0"/>
<feBlend mode="normal" in2="BackgroundImageFix" result="effect1_dropShadow_853_9216"/>
<feBlend mode="normal" in="SourceGraphic" in2="effect1_dropShadow_853_9216" result="shape"/>
</filter>
<filter id="filter1_f_853_9216" x="98" y="68.8308" width="66.6172" height="66.3376" filterUnits="userSpaceOnUse" color-interpolation-filters="sRGB">
<feFlood flood-opacity="0" result="BackgroundImageFix"/>
<feBlend mode="normal" in="SourceGraphic" in2="BackgroundImageFix" result="shape"/>
<feGaussianBlur stdDeviation="1" result="effect1_foregroundBlur_853_9216"/>
</filter>
<filter id="filter2_f_853_9216" x="111.179" y="75.4756" width="38.3867" height="61.1169" filterUnits="userSpaceOnUse" color-interpolation-filters="sRGB">
<feFlood flood-opacity="0" result="BackgroundImageFix"/>
<feBlend mode="normal" in="SourceGraphic" in2="BackgroundImageFix" result="shape"/>
<feGaussianBlur stdDeviation="2.5" result="effect1_foregroundBlur_853_9216"/>
</filter>
<linearGradient id="paint0_linear_853_9216" x1="131.604" y1="132.338" x2="132.845" y2="73.5322" gradientUnits="userSpaceOnUse">
<stop stop-color="#004DAE"/>
<stop offset="0.869762" stop-color="#4497FF"/>
</linearGradient>
<linearGradient id="paint1_linear_853_9216" x1="131.308" y1="77.6879" x2="131.308" y2="126.311" gradientUnits="userSpaceOnUse">
<stop stop-color="#1778F2"/>
<stop offset="1" stop-color="#1778F2" stop-opacity="0.62"/>
</linearGradient>
<linearGradient id="paint2_linear_853_9216" x1="131.308" y1="70.8308" x2="131.308" y2="133.168" gradientUnits="userSpaceOnUse">
<stop stop-color="#7CB4FB"/>
<stop offset="1" stop-color="#0B6280"/>
</linearGradient>
<linearGradient id="paint3_linear_853_9216" x1="132.877" y1="79.6444" x2="132.877" y2="133.991" gradientUnits="userSpaceOnUse">
<stop stop-color="white"/>
<stop offset="1" stop-color="white" stop-opacity="0"/>
</linearGradient>
</defs>
</svg>
