<svg width="265" height="264" viewBox="0 0 265 264" fill="none" xmlns="http://www.w3.org/2000/svg">
<g filter="url(#filter0_d_853_9269)">
<rect x="100.5" y="70.5" width="64" height="63" rx="31.5" fill="url(#paint0_linear_853_9269)" stroke="url(#paint1_linear_853_9269)"/>
<g filter="url(#filter1_f_853_9269)">
<rect x="100.844" y="70.8308" width="63.3117" height="62.3377" rx="31.1688" fill="url(#paint2_linear_853_9269)"/>
<rect x="101.094" y="71.0808" width="62.8117" height="61.8377" rx="30.9188" stroke="url(#paint3_linear_853_9269)" stroke-width="0.5"/>
</g>
</g>
<g filter="url(#filter2_f_853_9269)">
<path fill-rule="evenodd" clip-rule="evenodd" d="M121.752 101.829C121.752 100.671 121.956 99.5603 122.32 98.519L115.943 93.9307C114.7 96.3083 114 98.9875 114 101.829C114 104.668 114.699 107.345 115.94 109.721L122.314 105.124C121.953 104.087 121.752 102.981 121.752 101.829Z" fill="#B0B0B0"/>
<path fill-rule="evenodd" clip-rule="evenodd" d="M132.949 91.2935C135.619 91.2935 138.03 92.1849 139.925 93.6435L145.437 88.4571C142.078 85.7018 137.772 84 132.949 84C125.46 84 119.025 88.0348 115.943 93.9305L122.32 98.5188C123.79 94.3163 127.978 91.2935 132.949 91.2935Z" fill="#B0B0B0"/>
<path fill-rule="evenodd" clip-rule="evenodd" d="M132.949 112.364C127.978 112.364 123.79 109.341 122.32 105.139L115.943 109.726C119.025 115.623 125.46 119.657 132.949 119.657C137.57 119.657 141.983 118.111 145.294 115.214L139.241 110.805C137.533 111.819 135.382 112.364 132.949 112.364Z" fill="#B0B0B0"/>
<path fill-rule="evenodd" clip-rule="evenodd" d="M151.034 101.829C151.034 100.776 150.862 99.6412 150.603 98.5879H132.947V105.476H143.11C142.602 107.825 141.219 109.63 139.24 110.805L145.293 115.214C148.771 112.172 151.034 107.641 151.034 101.829Z" fill="#B0B0B0"/>
</g>
<path fill-rule="evenodd" clip-rule="evenodd" d="M120.752 101.829C120.752 100.671 120.956 99.5603 121.32 98.519L114.943 93.9307C113.7 96.3083 113 98.9875 113 101.829C113 104.668 113.699 107.345 114.94 109.721L121.314 105.124C120.953 104.087 120.752 102.981 120.752 101.829Z" fill="#FBBC05"/>
<path fill-rule="evenodd" clip-rule="evenodd" d="M131.949 91.2935C134.619 91.2935 137.03 92.1849 138.925 93.6435L144.437 88.4571C141.078 85.7018 136.772 84 131.949 84C124.46 84 118.025 88.0348 114.943 93.9305L121.32 98.5188C122.79 94.3163 126.978 91.2935 131.949 91.2935Z" fill="#EA4335"/>
<path fill-rule="evenodd" clip-rule="evenodd" d="M131.949 112.363C126.978 112.363 122.79 109.34 121.32 105.138L114.943 109.725C118.025 115.622 124.46 119.656 131.949 119.656C136.57 119.656 140.983 118.11 144.294 115.213L138.241 110.804C136.533 111.818 134.382 112.363 131.949 112.363Z" fill="#34A853"/>
<path fill-rule="evenodd" clip-rule="evenodd" d="M150.035 101.829C150.035 100.776 149.863 99.6412 149.604 98.5879H131.948V105.476H142.111C141.603 107.825 140.22 109.63 138.241 110.805L144.294 115.214C147.772 112.172 150.035 107.641 150.035 101.829Z" fill="#4285F4"/>
<defs>
<filter id="filter0_d_853_9269" x="0" y="0" width="265" height="264" filterUnits="userSpaceOnUse" color-interpolation-filters="sRGB">
<feFlood flood-opacity="0" result="BackgroundImageFix"/>
<feColorMatrix in="SourceAlpha" type="matrix" values="0 0 0 0 0 0 0 0 0 0 0 0 0 0 0 0 0 0 127 0" result="hardAlpha"/>
<feOffset dy="30"/>
<feGaussianBlur stdDeviation="50"/>
<feComposite in2="hardAlpha" operator="out"/>
<feColorMatrix type="matrix" values="0 0 0 0 0 0 0 0 0 0 0 0 0 0 0 0 0 0 0.15 0"/>
<feBlend mode="normal" in2="BackgroundImageFix" result="effect1_dropShadow_853_9269"/>
<feBlend mode="normal" in="SourceGraphic" in2="effect1_dropShadow_853_9269" result="shape"/>
</filter>
<filter id="filter1_f_853_9269" x="95.8438" y="65.8308" width="73.3115" height="72.3376" filterUnits="userSpaceOnUse" color-interpolation-filters="sRGB">
<feFlood flood-opacity="0" result="BackgroundImageFix"/>
<feBlend mode="normal" in="SourceGraphic" in2="BackgroundImageFix" result="shape"/>
<feGaussianBlur stdDeviation="2.5" result="effect1_foregroundBlur_853_9269"/>
</filter>
<filter id="filter2_f_853_9269" x="104" y="74" width="57.0342" height="55.6575" filterUnits="userSpaceOnUse" color-interpolation-filters="sRGB">
<feFlood flood-opacity="0" result="BackgroundImageFix"/>
<feBlend mode="normal" in="SourceGraphic" in2="BackgroundImageFix" result="shape"/>
<feGaussianBlur stdDeviation="5" result="effect1_foregroundBlur_853_9269"/>
</filter>
<linearGradient id="paint0_linear_853_9269" x1="131.234" y1="132.338" x2="132.461" y2="73.5317" gradientUnits="userSpaceOnUse">
<stop stop-color="#BAB9BC"/>
<stop offset="0.869762" stop-color="white"/>
</linearGradient>
<linearGradient id="paint1_linear_853_9269" x1="132.5" y1="70" x2="132.5" y2="134" gradientUnits="userSpaceOnUse">
<stop stop-color="white"/>
<stop offset="1" stop-color="#A6A6A6"/>
</linearGradient>
<linearGradient id="paint2_linear_853_9269" x1="132.5" y1="70.8308" x2="132.5" y2="133.168" gradientUnits="userSpaceOnUse">
<stop stop-color="white"/>
<stop offset="1" stop-color="#F1F1F1"/>
</linearGradient>
<linearGradient id="paint3_linear_853_9269" x1="132.5" y1="70.8308" x2="132.5" y2="133.168" gradientUnits="userSpaceOnUse">
<stop stop-color="white"/>
<stop offset="1" stop-color="#A6A6A6"/>
</linearGradient>
</defs>
</svg>
