<svg width="41" height="42" viewBox="0 0 41 42" fill="none" xmlns="http://www.w3.org/2000/svg">
<mask id="path-1-inside-1_821_10744" fill="white">
<path d="M38.4375 6.11084L36.7975 6.60303L7.44662 15.7498H2.5625V26.2498H7.44791L9.96941 27.0295L9.93097 27.1515V27.1935C9.10841 29.9655 10.6318 33.0473 13.4544 33.9188C13.4672 33.9227 13.4826 33.9148 13.4928 33.9188C16.2129 34.7653 19.2239 33.2232 20.0605 30.3094L20.099 30.186L36.7975 35.3967L38.4375 35.8875V6.11084ZM35.875 9.63884V32.3608L8.04625 23.6642L7.88866 23.6248H5.125V18.3748H7.88738L8.04753 18.3355L35.875 9.63884ZM12.4115 27.8078L17.6569 29.409L17.6185 29.5311V29.5705C17.1777 31.1061 15.5864 31.8568 14.2155 31.4172C12.7164 30.967 11.9451 29.3775 12.373 27.9718V27.9325L12.4115 27.8078Z"/>
</mask>
<path d="M38.4375 6.11084L36.7975 6.60303L7.44662 15.7498H2.5625V26.2498H7.44791L9.96941 27.0295L9.93097 27.1515V27.1935C9.10841 29.9655 10.6318 33.0473 13.4544 33.9188C13.4672 33.9227 13.4826 33.9148 13.4928 33.9188C16.2129 34.7653 19.2239 33.2232 20.0605 30.3094L20.099 30.186L36.7975 35.3967L38.4375 35.8875V6.11084ZM35.875 9.63884V32.3608L8.04625 23.6642L7.88866 23.6248H5.125V18.3748H7.88738L8.04753 18.3355L35.875 9.63884ZM12.4115 27.8078L17.6569 29.409L17.6185 29.5311V29.5705C17.1777 31.1061 15.5864 31.8568 14.2155 31.4172C12.7164 30.967 11.9451 29.3775 12.373 27.9718V27.9325L12.4115 27.8078Z" fill="#FFA629"/>
<path d="M38.4375 6.11084H41.4375V2.07831L37.5752 3.23745L38.4375 6.11084ZM36.7975 6.60303L35.9352 3.72964L35.92 3.73418L35.9049 3.73888L36.7975 6.60303ZM7.44662 15.7498V18.7498H7.90325L8.3392 18.614L7.44662 15.7498ZM2.5625 15.7498V12.7498H-0.4375V15.7498H2.5625ZM2.5625 26.2498H-0.4375V29.2498H2.5625V26.2498ZM7.44791 26.2498L8.33409 23.3837L7.90111 23.2498H7.44791V26.2498ZM9.96941 27.0295L12.8309 27.9305L13.7367 25.0541L10.8556 24.1633L9.96941 27.0295ZM9.93097 27.1515L7.06949 26.2504L6.93097 26.6903V27.1515H9.93097ZM9.93097 27.1935L12.807 28.047L12.931 27.6292V27.1935H9.93097ZM13.4544 33.9188L12.5694 36.7853L12.5731 36.7864L13.4544 33.9188ZM13.4928 33.9188L12.4171 36.7193L12.5082 36.7543L12.6013 36.7833L13.4928 33.9188ZM20.0605 30.3094L17.1963 29.417L17.1863 29.4491L17.177 29.4814L20.0605 30.3094ZM20.099 30.186L20.9926 27.3222L18.1275 26.4282L17.2348 29.2937L20.099 30.186ZM36.7975 35.3967L35.9039 38.2605L35.9205 38.2657L35.9373 38.2707L36.7975 35.3967ZM38.4375 35.8875L37.5773 38.7615L41.4375 39.917V35.8875H38.4375ZM35.875 9.63884H38.875V5.55819L34.9801 6.77542L35.875 9.63884ZM35.875 32.3608L34.9802 35.2243L38.875 36.4414V32.3608H35.875ZM8.04625 23.6642L8.94109 20.8008L8.85796 20.7748L8.77346 20.7537L8.04625 23.6642ZM7.88866 23.6248L8.61587 20.7143L8.25777 20.6248H7.88866V23.6248ZM5.125 23.6248H2.125V26.6248H5.125V23.6248ZM5.125 18.3748V15.3748H2.125V18.3748H5.125ZM7.88738 18.3748V21.3748H8.25074L8.6036 21.2881L7.88738 18.3748ZM8.04753 18.3355L8.76376 21.2487L8.85385 21.2266L8.94241 21.1989L8.04753 18.3355ZM12.4115 27.8078L13.2874 24.9385L10.426 24.065L9.54461 26.924L12.4115 27.8078ZM17.6569 29.409L20.5184 30.3101L21.4274 27.4234L18.5328 26.5397L17.6569 29.409ZM17.6185 29.5311L14.757 28.63L14.6185 29.0699V29.5311H17.6185ZM17.6185 29.5705L20.502 30.3981L20.6185 29.9925V29.5705H17.6185ZM14.2155 31.4172L15.1317 28.5605L15.1051 28.552L15.0783 28.5439L14.2155 31.4172ZM12.373 27.9718L15.243 28.8455L15.373 28.4184V27.9718H12.373ZM12.373 27.9325L9.50617 27.0487L9.37303 27.4805V27.9325H12.373ZM38.4375 6.11084L37.5752 3.23745L35.9352 3.72964L36.7975 6.60303L37.6598 9.47642L39.2998 8.98423L38.4375 6.11084ZM36.7975 6.60303L35.9049 3.73888L6.55405 12.8857L7.44662 15.7498L8.3392 18.614L37.6901 9.46717L36.7975 6.60303ZM7.44662 15.7498V12.7498H2.5625V15.7498V18.7498H7.44662V15.7498ZM2.5625 15.7498H-0.4375V26.2498H2.5625H5.5625V15.7498H2.5625ZM2.5625 26.2498V29.2498H7.44791V26.2498V23.2498H2.5625V26.2498ZM7.44791 26.2498L6.56173 29.116L9.08323 29.8956L9.96941 27.0295L10.8556 24.1633L8.33409 23.3837L7.44791 26.2498ZM9.96941 27.0295L7.10793 26.1284L7.06949 26.2504L9.93097 27.1515L12.7924 28.0526L12.8309 27.9305L9.96941 27.0295ZM9.93097 27.1515H6.93097V27.1935H9.93097H12.931V27.1515H9.93097ZM9.93097 27.1935L7.05492 26.3401C5.79075 30.6003 8.08982 35.4022 12.5694 36.7853L13.4544 33.9188L14.3395 31.0523C13.1738 30.6924 12.4261 29.3308 12.807 28.047L9.93097 27.1935ZM13.4544 33.9188L12.5731 36.7864C12.7899 36.853 12.9884 36.8874 13.1563 36.9044C13.3228 36.9213 13.4653 36.9218 13.5728 36.9179C13.6796 36.9141 13.7659 36.9053 13.8186 36.8991C13.8458 36.8959 13.868 36.8929 13.8826 36.8909C13.8964 36.889 13.9077 36.8874 13.909 36.8872C13.9138 36.8865 13.9055 36.8877 13.8974 36.8888C13.8877 36.8902 13.8691 36.8928 13.8456 36.8957C13.8015 36.9011 13.7145 36.9109 13.604 36.9153C13.4932 36.9197 13.3305 36.9201 13.1354 36.8969C12.9378 36.8735 12.6896 36.8239 12.4171 36.7193L13.4928 33.9188L14.5686 31.1183C14.2936 31.0126 14.0426 30.9625 13.8421 30.9387C13.6442 30.9152 13.4785 30.9155 13.3647 30.9201C13.251 30.9246 13.1608 30.9347 13.1135 30.9405C13.0702 30.9458 13.0301 30.9519 13.0402 30.9504C13.0404 30.9504 13.0429 30.95 13.0462 30.9495C13.0496 30.949 13.0549 30.9483 13.0615 30.9474C13.0744 30.9456 13.0949 30.9428 13.1204 30.9399C13.1697 30.9341 13.2526 30.9256 13.356 30.9218C13.5558 30.9146 13.9131 30.9213 14.3357 31.0511L13.4544 33.9188ZM13.4928 33.9188L12.6013 36.7833C16.9212 38.1277 21.6409 35.6756 22.944 31.1374L20.0605 30.3094L17.177 29.4814C16.8069 30.7707 15.5047 31.403 14.3843 31.0543L13.4928 33.9188ZM20.0605 30.3094L22.9247 31.2018L22.9632 31.0784L20.099 30.186L17.2348 29.2937L17.1963 29.417L20.0605 30.3094ZM20.099 30.186L19.2053 33.0498L35.9039 38.2605L36.7975 35.3967L37.6911 32.5328L20.9926 27.3222L20.099 30.186ZM36.7975 35.3967L35.9373 38.2707L37.5773 38.7615L38.4375 35.8875L39.2977 33.0135L37.6577 32.5226L36.7975 35.3967ZM38.4375 35.8875H41.4375V6.11084H38.4375H35.4375V35.8875H38.4375ZM35.875 9.63884H32.875V32.3608H35.875H38.875V9.63884H35.875ZM35.875 32.3608L36.7698 29.4974L8.94109 20.8008L8.04625 23.6642L7.15141 26.5277L34.9802 35.2243L35.875 32.3608ZM8.04625 23.6642L8.77346 20.7537L8.61587 20.7143L7.88866 23.6248L7.16144 26.5354L7.31904 26.5747L8.04625 23.6642ZM7.88866 23.6248V20.6248H5.125V23.6248V26.6248H7.88866V23.6248ZM5.125 23.6248H8.125V18.3748H5.125H2.125V23.6248H5.125ZM5.125 18.3748V21.3748H7.88738V18.3748V15.3748H5.125V18.3748ZM7.88738 18.3748L8.6036 21.2881L8.76376 21.2487L8.04753 18.3355L7.3313 15.4222L7.17115 15.4616L7.88738 18.3748ZM8.04753 18.3355L8.94241 21.1989L36.7699 12.5023L35.875 9.63884L34.9801 6.77542L7.15266 15.472L8.04753 18.3355ZM12.4115 27.8078L11.5356 30.6771L16.781 32.2783L17.6569 29.409L18.5328 26.5397L13.2874 24.9385L12.4115 27.8078ZM17.6569 29.409L14.7954 28.508L14.757 28.63L17.6185 29.5311L20.48 30.4322L20.5184 30.3101L17.6569 29.409ZM17.6185 29.5311H14.6185V29.5705H17.6185H20.6185V29.5311H17.6185ZM17.6185 29.5705L14.7349 28.7428C14.7404 28.7236 14.7563 28.6874 14.7877 28.6496C14.8171 28.6143 14.8501 28.5893 14.8816 28.573C14.9347 28.5454 15.0206 28.5249 15.1317 28.5605L14.2155 31.4172L13.2993 34.2738C16.2226 35.2114 19.577 33.6209 20.502 30.3981L17.6185 29.5705ZM14.2155 31.4172L15.0783 28.5439C15.1063 28.5523 15.1421 28.5704 15.1746 28.598C15.2047 28.6235 15.2233 28.6495 15.2342 28.6705C15.2517 28.7042 15.268 28.7634 15.243 28.8455L12.373 27.9718L9.50308 27.0981C8.61278 30.0226 10.1928 33.3414 13.3526 34.2904L14.2155 31.4172ZM12.373 27.9718H15.373V27.9325H12.373H9.37303V27.9718H12.373ZM12.373 27.9325L15.2399 28.8163L15.2783 28.6916L12.4115 27.8078L9.54461 26.924L9.50617 27.0487L12.373 27.9325Z" fill="#FFA629" mask="url(#path-1-inside-1_821_10744)"/>
</svg>
