<svg width="29" height="29" viewBox="0 0 29 29" fill="none" xmlns="http://www.w3.org/2000/svg">
<path fill-rule="evenodd" clip-rule="evenodd" d="M14.6203 0.969423C14.4884 0.909449 14.3452 0.878418 14.2004 0.878418C14.0555 0.878418 13.9123 0.909449 13.7805 0.969423L8.45951 3.39155L14.1963 6.00437L19.9372 3.38952L14.6203 0.969423ZM7.50608 11.3801V5.18482L13.1861 7.77126V14.6177L8.09639 12.3031C7.91919 12.2225 7.76893 12.0926 7.66354 11.929C7.55814 11.7653 7.50207 11.5748 7.50202 11.3801M15.2106 24.996V18.2205L20.5904 20.671V27.5175L15.5068 25.2029C15.3957 25.1524 15.2967 25.0823 15.2106 24.996ZM22.6169 27.5215V20.671L28.303 18.0825V24.2799C28.3029 24.4745 28.2469 24.6651 28.1415 24.8287C28.0361 24.9924 27.8858 25.1223 27.7086 25.2029L22.6169 27.5215ZM13.182 18.2205V25.0041C13.0976 25.0867 12.9995 25.154 12.8919 25.2029L7.80022 27.5215V20.671L13.182 18.2205ZM5.77165 20.671V27.5175L0.690075 25.2029C0.512877 25.1223 0.362613 24.9924 0.25722 24.8287C0.151827 24.6651 0.095757 24.4745 0.0957031 24.2799V18.0846L5.77165 20.671ZM15.2106 14.6218V7.76923L20.8967 5.18076V11.3801C20.8966 11.5748 20.8406 11.7653 20.7352 11.929C20.6298 12.0926 20.4795 12.2225 20.3023 12.3031L15.2106 14.6218ZM21.1908 13.8712C21.3227 13.8112 21.4659 13.7802 21.6107 13.7802C21.7556 13.7802 21.8988 13.8112 22.0307 13.8712L27.3455 16.2893L21.6047 18.9041L15.8739 16.2893L21.1908 13.8712ZM6.37008 13.8712C6.50194 13.8112 6.64513 13.7802 6.78999 13.7802C6.93486 13.7802 7.07804 13.8112 7.20991 13.8712L12.5248 16.2893L6.78593 18.9062L1.05116 16.2893L6.37008 13.8712Z" fill="#FFA629"/>
</svg>
