<svg width="265" height="258" viewBox="0 0 265 258" fill="none" xmlns="http://www.w3.org/2000/svg">
<g filter="url(#filter0_d_821_10793)">
<rect x="100" y="70" width="64.1574" height="57.9997" rx="28.9998" fill="url(#paint0_linear_821_10793)"/>
<g filter="url(#filter1_f_821_10793)">
<rect x="100.832" y="70.7529" width="62.491" height="56.4932" rx="28.2466" fill="url(#paint1_linear_821_10793)"/>
</g>
<g filter="url(#filter2_f_821_10793)">
<path d="M130.495 92.0166C125.579 92.0166 121.507 95.6349 121.507 100.142C121.507 104.649 125.509 108.267 130.495 108.267C135.48 108.267 139.483 104.585 139.483 100.142C139.483 95.6984 135.41 92.0166 130.495 92.0166ZM130.495 105.347C127.335 105.347 124.737 102.998 124.737 100.142C124.737 97.2853 127.335 94.9366 130.495 94.9366C133.655 94.9366 136.253 97.2853 136.253 100.142C136.253 102.998 133.655 105.347 130.495 105.347Z" fill="black" fill-opacity="0.3"/>
<path d="M139.834 93.6666C140.959 93.6666 141.871 92.8424 141.871 91.8258C141.871 90.8091 140.959 89.9849 139.834 89.9849C138.71 89.9849 137.798 90.8091 137.798 91.8258C137.798 92.8424 138.71 93.6666 139.834 93.6666Z" fill="black" fill-opacity="0.3"/>
<path d="M145.101 87.065C143.275 85.3511 140.677 84.4624 137.728 84.4624H123.263C117.154 84.4624 113.081 88.1442 113.081 93.6668V106.68C113.081 109.41 114.064 111.758 116.03 113.472C117.926 115.123 120.454 115.948 123.333 115.948H137.657C140.677 115.948 143.205 115.059 145.03 113.472C146.926 111.822 147.909 109.473 147.909 106.743V93.6668C147.909 91.0007 146.926 88.7155 145.101 87.065ZM144.82 106.743C144.82 108.711 144.047 110.298 142.783 111.377C141.519 112.457 139.764 113.028 137.657 113.028H123.333C121.226 113.028 119.471 112.457 118.207 111.377C116.943 110.235 116.311 108.648 116.311 106.68V93.6668C116.311 91.7625 116.943 90.1755 118.207 89.0329C119.401 87.9537 121.226 87.3824 123.333 87.3824H137.798C139.904 87.3824 141.66 87.9537 142.924 89.0964C144.118 90.239 144.82 91.826 144.82 93.6668V106.743Z" fill="black" fill-opacity="0.3"/>
</g>
<path d="M132.578 90.7603C137.379 90.7604 141.315 94.3532 141.315 98.6353C141.315 102.919 137.448 106.511 132.578 106.511C127.706 106.511 123.84 102.981 123.84 98.6353C123.84 94.2908 127.775 90.7603 132.578 90.7603ZM132.578 93.1802C129.305 93.1802 126.57 95.6176 126.57 98.6353C126.57 101.653 129.305 104.091 132.578 104.091C135.852 104.091 138.586 101.653 138.586 98.6353C138.586 95.6177 135.851 93.1803 132.578 93.1802Z" fill="white" fill-opacity="0.9" stroke="url(#paint2_linear_821_10793)" stroke-width="0.5"/>
<path d="M141.917 88.7285C142.928 88.7285 143.703 89.4639 143.703 90.3193C143.703 91.1748 142.928 91.9102 141.917 91.9102C140.906 91.9101 140.131 91.1748 140.131 90.3193C140.131 89.4639 140.906 88.7286 141.917 88.7285Z" fill="white" fill-opacity="0.9" stroke="url(#paint3_linear_821_10793)" stroke-width="0.5"/>
<path d="M125.346 83.2061H139.811C142.711 83.2061 145.243 84.0801 147.013 85.7412L147.016 85.7441C148.785 87.3436 149.742 89.5595 149.742 92.1602V105.237C149.742 107.737 148.9 109.894 147.283 111.47L146.949 111.777C145.177 113.318 142.71 114.191 139.74 114.191H125.416C122.585 114.191 120.119 113.381 118.277 111.777C116.371 110.116 115.414 107.839 115.414 105.174V92.1602C115.414 89.4639 116.407 87.2324 118.132 85.6729C119.859 84.1112 122.341 83.2061 125.346 83.2061ZM125.416 85.626C123.27 85.626 121.376 86.2073 120.122 87.3408C118.797 88.5383 118.145 90.1973 118.145 92.1602V105.174C118.145 107.199 118.797 108.858 120.122 110.057L120.128 110.062C121.448 111.188 123.266 111.771 125.416 111.771H139.74C141.891 111.771 143.709 111.188 145.028 110.062C146.35 108.933 147.152 107.275 147.152 105.237V92.1602C147.152 90.2528 146.424 88.6 145.18 87.4092L145.175 87.4043L144.921 87.1875C143.624 86.139 141.897 85.626 139.881 85.626H125.416Z" fill="white" fill-opacity="0.9" stroke="url(#paint4_linear_821_10793)" stroke-width="0.5"/>
</g>
<defs>
<filter id="filter0_d_821_10793" x="0" y="0" width="264.157" height="258" filterUnits="userSpaceOnUse" color-interpolation-filters="sRGB">
<feFlood flood-opacity="0" result="BackgroundImageFix"/>
<feColorMatrix in="SourceAlpha" type="matrix" values="0 0 0 0 0 0 0 0 0 0 0 0 0 0 0 0 0 0 127 0" result="hardAlpha"/>
<feOffset dy="30"/>
<feGaussianBlur stdDeviation="50"/>
<feComposite in2="hardAlpha" operator="out"/>
<feColorMatrix type="matrix" values="0 0 0 0 0 0 0 0 0 0 0 0 0 0 0 0 0 0 0.15 0"/>
<feBlend mode="normal" in2="BackgroundImageFix" result="effect1_dropShadow_821_10793"/>
<feBlend mode="normal" in="SourceGraphic" in2="effect1_dropShadow_821_10793" result="shape"/>
</filter>
<filter id="filter1_f_821_10793" x="95.832" y="65.7529" width="72.4912" height="66.4932" filterUnits="userSpaceOnUse" color-interpolation-filters="sRGB">
<feFlood flood-opacity="0" result="BackgroundImageFix"/>
<feBlend mode="normal" in="SourceGraphic" in2="BackgroundImageFix" result="shape"/>
<feGaussianBlur stdDeviation="2.5" result="effect1_foregroundBlur_821_10793"/>
</filter>
<filter id="filter2_f_821_10793" x="108.081" y="79.4624" width="44.8281" height="41.4854" filterUnits="userSpaceOnUse" color-interpolation-filters="sRGB">
<feFlood flood-opacity="0" result="BackgroundImageFix"/>
<feBlend mode="normal" in="SourceGraphic" in2="BackgroundImageFix" result="shape"/>
<feGaussianBlur stdDeviation="2.5" result="effect1_foregroundBlur_821_10793"/>
</filter>
<linearGradient id="paint0_linear_821_10793" x1="105.56" y1="124.52" x2="154.899" y2="68.8807" gradientUnits="userSpaceOnUse">
<stop stop-color="#C16010"/>
<stop offset="0.307292" stop-color="#CEA126"/>
<stop offset="0.583333" stop-color="#B40755"/>
<stop offset="0.786458" stop-color="#5F0C91"/>
<stop offset="1" stop-color="#2A35B9"/>
</linearGradient>
<linearGradient id="paint1_linear_821_10793" x1="103.332" y1="131.577" x2="152.262" y2="68.8734" gradientUnits="userSpaceOnUse">
<stop stop-color="#F58529"/>
<stop offset="0.178522" stop-color="#FFDB77"/>
<stop offset="0.501818" stop-color="#DD2A7B"/>
<stop offset="0.778544" stop-color="#8134AF"/>
<stop offset="1" stop-color="#515BD4"/>
</linearGradient>
<linearGradient id="paint2_linear_821_10793" x1="132.578" y1="90.5103" x2="132.578" y2="106.761" gradientUnits="userSpaceOnUse">
<stop stop-color="white"/>
<stop offset="1" stop-color="white" stop-opacity="0"/>
</linearGradient>
<linearGradient id="paint3_linear_821_10793" x1="141.917" y1="88.4785" x2="141.917" y2="92.1603" gradientUnits="userSpaceOnUse">
<stop stop-color="white"/>
<stop offset="1" stop-color="white" stop-opacity="0"/>
</linearGradient>
<linearGradient id="paint4_linear_821_10793" x1="132.578" y1="82.9561" x2="132.578" y2="114.442" gradientUnits="userSpaceOnUse">
<stop stop-color="white"/>
<stop offset="1" stop-color="white" stop-opacity="0"/>
</linearGradient>
</defs>
</svg>
