<svg width="265" height="264" viewBox="0 0 265 264" fill="none" xmlns="http://www.w3.org/2000/svg">
<g filter="url(#filter0_d_853_9224)">
<rect x="100" y="70" width="65" height="64" rx="32" fill="url(#paint0_linear_853_9224)"/>
<g filter="url(#filter1_f_853_9224)">
<rect x="100.843" y="70.8308" width="63.3117" height="62.3377" rx="31.1688" fill="url(#paint1_linear_853_9224)"/>
</g>
<g filter="url(#filter2_f_853_9224)">
<path d="M130.896 94.2941C125.916 94.2941 121.79 98.2867 121.79 103.26C121.79 108.233 125.845 112.226 130.896 112.226C135.947 112.226 140.002 108.163 140.002 103.26C140.002 98.3567 135.876 94.2941 130.896 94.2941ZM130.896 109.004C127.695 109.004 125.063 106.412 125.063 103.26C125.063 100.108 127.695 97.5162 130.896 97.5162C134.097 97.5162 136.73 100.108 136.73 103.26C136.73 106.412 134.097 109.004 130.896 109.004Z" fill="black" fill-opacity="0.3"/>
<path d="M140.357 96.1153C141.496 96.1153 142.42 95.2058 142.42 94.0839C142.42 92.9621 141.496 92.0526 140.357 92.0526C139.218 92.0526 138.294 92.9621 138.294 94.0839C138.294 95.2058 139.218 96.1153 140.357 96.1153Z" fill="black" fill-opacity="0.3"/>
<path d="M145.693 88.8305C143.843 86.9393 141.211 85.9586 138.223 85.9586H123.568C117.379 85.9586 113.253 90.0213 113.253 96.1153V110.475C113.253 113.487 114.249 116.078 116.241 117.97C118.162 119.791 120.723 120.701 123.639 120.701H138.152C141.211 120.701 143.772 119.721 145.622 117.97C147.543 116.148 148.539 113.557 148.539 110.545V96.1153C148.539 93.1734 147.543 90.6517 145.693 88.8305ZM145.408 110.545C145.408 112.716 144.626 114.467 143.345 115.658C142.065 116.849 140.286 117.479 138.152 117.479H123.639C121.505 117.479 119.727 116.849 118.446 115.658C117.166 114.397 116.525 112.646 116.525 110.475V96.1153C116.525 94.0139 117.166 92.2628 118.446 91.0019C119.656 89.8112 121.505 89.1807 123.639 89.1807H138.294C140.429 89.1807 142.207 89.8112 143.488 91.072C144.697 92.3328 145.408 94.084 145.408 96.1153V110.545Z" fill="black" fill-opacity="0.3"/>
</g>
<path d="M133.007 92.8817C137.852 92.882 141.862 96.8362 141.862 101.598C141.862 106.36 137.922 110.313 133.007 110.313C128.09 110.313 124.15 106.429 124.15 101.598C124.15 96.7673 128.16 92.8817 133.007 92.8817ZM133.007 95.6034C129.671 95.6034 126.923 98.3038 126.923 101.598C126.923 104.891 129.671 107.592 133.007 107.592C136.342 107.591 139.09 104.891 139.09 101.598C139.09 98.3039 136.342 95.6036 133.007 95.6034Z" fill="white" fill-opacity="0.9" stroke="url(#paint2_linear_853_9224)" stroke-width="0.5"/>
<path d="M142.468 90.6403C143.473 90.6405 144.28 91.4415 144.28 92.4215C144.28 93.4015 143.473 94.2025 142.468 94.2028C141.463 94.2028 140.654 93.4017 140.654 92.4215C140.654 91.4414 141.463 90.6403 142.468 90.6403Z" fill="white" fill-opacity="0.9" stroke="url(#paint3_linear_853_9224)" stroke-width="0.5"/>
<path d="M125.679 84.5463H140.334C143.267 84.5463 145.831 85.5085 147.625 87.3431L147.628 87.3461C149.424 89.1145 150.399 91.5691 150.399 94.4525V108.882C150.399 111.838 149.423 114.359 147.561 116.125C145.764 117.827 143.267 118.789 140.263 118.789H125.75C122.887 118.789 120.391 117.896 118.523 116.126C116.589 114.29 115.613 111.767 115.613 108.813V94.4525C115.613 91.4639 116.624 88.9923 118.375 87.2679C120.017 85.6509 122.329 84.6737 125.115 84.558L125.679 84.5463ZM125.75 87.2679C123.571 87.2679 121.65 87.912 120.381 89.1615C119.043 90.4788 118.386 92.2994 118.386 94.4525V108.813C118.386 111.035 119.042 112.856 120.381 114.174L120.387 114.179C121.723 115.421 123.566 116.067 125.75 116.067H140.263C142.446 116.067 144.29 115.421 145.626 114.179C146.962 112.937 147.769 111.116 147.769 108.882V94.4525C147.768 92.3615 147.035 90.5472 145.778 89.2367L145.773 89.2318L145.517 88.9926C144.204 87.8365 142.452 87.2679 140.404 87.2679H125.75Z" fill="white" fill-opacity="0.9" stroke="url(#paint4_linear_853_9224)" stroke-width="0.5"/>
</g>
<defs>
<filter id="filter0_d_853_9224" x="0" y="0" width="265" height="264" filterUnits="userSpaceOnUse" color-interpolation-filters="sRGB">
<feFlood flood-opacity="0" result="BackgroundImageFix"/>
<feColorMatrix in="SourceAlpha" type="matrix" values="0 0 0 0 0 0 0 0 0 0 0 0 0 0 0 0 0 0 127 0" result="hardAlpha"/>
<feOffset dy="30"/>
<feGaussianBlur stdDeviation="50"/>
<feComposite in2="hardAlpha" operator="out"/>
<feColorMatrix type="matrix" values="0 0 0 0 0 0 0 0 0 0 0 0 0 0 0 0 0 0 0.15 0"/>
<feBlend mode="normal" in2="BackgroundImageFix" result="effect1_dropShadow_853_9224"/>
<feBlend mode="normal" in="SourceGraphic" in2="effect1_dropShadow_853_9224" result="shape"/>
</filter>
<filter id="filter1_f_853_9224" x="95.8428" y="65.8308" width="73.3115" height="72.3376" filterUnits="userSpaceOnUse" color-interpolation-filters="sRGB">
<feFlood flood-opacity="0" result="BackgroundImageFix"/>
<feBlend mode="normal" in="SourceGraphic" in2="BackgroundImageFix" result="shape"/>
<feGaussianBlur stdDeviation="2.5" result="effect1_foregroundBlur_853_9224"/>
</filter>
<filter id="filter2_f_853_9224" x="108.253" y="80.9586" width="45.2861" height="44.7429" filterUnits="userSpaceOnUse" color-interpolation-filters="sRGB">
<feFlood flood-opacity="0" result="BackgroundImageFix"/>
<feBlend mode="normal" in="SourceGraphic" in2="BackgroundImageFix" result="shape"/>
<feGaussianBlur stdDeviation="2.5" result="effect1_foregroundBlur_853_9224"/>
</filter>
<linearGradient id="paint0_linear_853_9224" x1="105.633" y1="130.16" x2="160.437" y2="73.4171" gradientUnits="userSpaceOnUse">
<stop stop-color="#C16010"/>
<stop offset="0.307292" stop-color="#CEA126"/>
<stop offset="0.583333" stop-color="#B40755"/>
<stop offset="0.786458" stop-color="#5F0C91"/>
<stop offset="1" stop-color="#2A35B9"/>
</linearGradient>
<linearGradient id="paint1_linear_853_9224" x1="103.375" y1="137.948" x2="158.309" y2="73.3129" gradientUnits="userSpaceOnUse">
<stop stop-color="#F58529"/>
<stop offset="0.178522" stop-color="#FFDB77"/>
<stop offset="0.501818" stop-color="#DD2A7B"/>
<stop offset="0.778544" stop-color="#8134AF"/>
<stop offset="1" stop-color="#515BD4"/>
</linearGradient>
<linearGradient id="paint2_linear_853_9224" x1="133.006" y1="92.6317" x2="133.006" y2="110.564" gradientUnits="userSpaceOnUse">
<stop stop-color="white"/>
<stop offset="1" stop-color="white" stop-opacity="0"/>
</linearGradient>
<linearGradient id="paint3_linear_853_9224" x1="142.467" y1="90.3903" x2="142.467" y2="94.4529" gradientUnits="userSpaceOnUse">
<stop stop-color="white"/>
<stop offset="1" stop-color="white" stop-opacity="0"/>
</linearGradient>
<linearGradient id="paint4_linear_853_9224" x1="133.006" y1="84.2963" x2="133.006" y2="119.039" gradientUnits="userSpaceOnUse">
<stop stop-color="white"/>
<stop offset="1" stop-color="white" stop-opacity="0"/>
</linearGradient>
</defs>
</svg>
