<svg width="31" height="30" viewBox="0 0 31 30" fill="none" xmlns="http://www.w3.org/2000/svg">
<path fill-rule="evenodd" clip-rule="evenodd" d="M2.90625 13.125C2.90635 10.7545 3.62078 8.4355 4.96206 6.45197C6.30334 4.46844 8.21324 2.9065 10.4579 1.95743C12.7025 1.00836 15.1844 0.71336 17.5996 1.10856C20.0148 1.50377 22.2585 2.57201 24.056 4.18248C25.8534 5.79295 27.1265 7.87572 27.7193 10.1757C28.3122 12.4757 28.1991 14.8932 27.3938 17.1319C26.5886 19.3707 25.1262 21.3336 23.1858 22.7802C21.2453 24.2269 18.911 25.0945 16.4688 25.2769V26.25H21.3125V28.125H9.6875V26.25H14.5312V25.2769C11.3682 25.0407 8.41376 23.658 6.25854 21.4051C4.10333 19.1522 2.90612 16.1951 2.90625 13.125ZM15.5 2.81251C12.6738 2.81251 9.96333 3.899 7.96489 5.83297C5.96646 7.76694 4.84375 10.39 4.84375 13.125C4.84375 15.8601 5.96646 18.4831 7.96489 20.417C9.96333 22.351 12.6738 23.4375 15.5 23.4375C18.3262 23.4375 21.0367 22.351 23.0351 20.417C25.0335 18.4831 26.1562 15.8601 26.1562 13.125C26.1562 10.39 25.0335 7.76694 23.0351 5.83297C21.0367 3.899 18.3262 2.81251 15.5 2.81251Z" fill="#FFA629"/>
<path fill-rule="evenodd" clip-rule="evenodd" d="M8.71875 13.125C8.71875 11.3845 9.4332 9.71532 10.7049 8.48461C11.9767 7.2539 13.7015 6.5625 15.5 6.5625C17.2985 6.5625 19.0233 7.2539 20.2951 8.48461C21.5668 9.71532 22.2812 11.3845 22.2812 13.125C22.2812 14.8655 21.5668 16.5347 20.2951 17.7654C19.0233 18.9961 17.2985 19.6875 15.5 19.6875C13.7015 19.6875 11.9767 18.9961 10.7049 17.7654C9.4332 16.5347 8.71875 14.8655 8.71875 13.125ZM15.5 8.4375C14.495 8.43777 13.5149 8.74056 12.6957 9.30392C11.8764 9.86728 11.2585 10.6633 10.9276 11.5817C10.5967 12.5 10.5692 13.4953 10.8489 14.4295C11.1286 15.3636 11.7016 16.1905 12.4886 16.7954C13.2755 17.4004 14.2374 17.7535 15.241 17.8057C16.2446 17.858 17.2401 17.6069 18.0896 17.0872C18.9391 16.5674 19.6005 15.8049 19.9822 14.9051C20.3639 14.0054 20.4469 13.0131 20.2197 12.0656C20.0743 12.5308 19.8067 12.9515 19.4432 13.2868C19.0797 13.622 18.6326 13.8605 18.1455 13.9787C17.6584 14.097 17.148 14.0912 16.664 13.9617C16.18 13.8323 15.7388 13.5836 15.3837 13.2401C15.0285 12.8966 14.7713 12.4698 14.6373 12.0015C14.5033 11.5331 14.4969 11.0391 14.6189 10.5677C14.7409 10.0963 14.987 9.66349 15.3333 9.31152C15.6795 8.95955 16.1141 8.70041 16.5947 8.55938C16.2358 8.47859 15.8685 8.4377 15.5 8.4375Z" fill="#FFA629"/>
</svg>
