<svg width="32" height="32" viewBox="0 0 32 32" fill="none" xmlns="http://www.w3.org/2000/svg">
<path d="M8.66634 26.6668C6.64412 26.6668 4.91656 25.9668 3.48367 24.5668C2.05079 23.1668 1.3339 21.4557 1.33301 19.4335C1.33301 17.7002 1.85523 16.1557 2.89967 14.8002C3.94412 13.4446 5.31079 12.5779 6.99967 12.2002C7.55523 10.1557 8.66634 8.50016 10.333 7.2335C11.9997 5.96683 13.8886 5.3335 15.9997 5.3335C18.5997 5.3335 20.8055 6.23927 22.617 8.05083C24.4286 9.86239 25.3339 12.0677 25.333 14.6668C26.8663 14.8446 28.1388 15.5059 29.1503 16.6508C30.1619 17.7957 30.6672 19.1344 30.6663 20.6668C30.6663 22.3335 30.0832 23.7504 28.917 24.9175C27.7508 26.0846 26.3339 26.6677 24.6663 26.6668H8.66634ZM8.66634 24.0002H24.6663C25.5997 24.0002 26.3886 23.6779 27.033 23.0335C27.6775 22.3891 27.9997 21.6002 27.9997 20.6668C27.9997 19.7335 27.6775 18.9446 27.033 18.3002C26.3886 17.6557 25.5997 17.3335 24.6663 17.3335H22.6663V14.6668C22.6663 12.8224 22.0161 11.2499 20.7157 9.9495C19.4152 8.64905 17.8432 7.99927 15.9997 8.00016C14.1561 8.00105 12.5841 8.65127 11.2837 9.95083C9.98323 11.2504 9.33301 12.8224 9.33301 14.6668H8.66634C7.37745 14.6668 6.27745 15.1224 5.36634 16.0335C4.45523 16.9446 3.99967 18.0446 3.99967 19.3335C3.99967 20.6224 4.45523 21.7224 5.36634 22.6335C6.27745 23.5446 7.37745 24.0002 8.66634 24.0002Z" fill="white"/>
</svg>
