<svg width="33" height="33" viewBox="0 0 33 33" fill="none" xmlns="http://www.w3.org/2000/svg">
<path d="M12.4922 7.4734C13.3125 5.07286 16.6294 5.00016 17.6019 7.2553L17.6842 7.47478L18.7912 10.7121C19.0449 11.4545 19.4549 12.1339 19.9934 12.7044C20.532 13.2749 21.1867 13.7233 21.9133 14.0193L22.211 14.1304L25.4483 15.2361C27.8488 16.0564 27.9215 19.3732 25.6677 20.3458L25.4483 20.4281L22.211 21.5351C21.4683 21.7886 20.7886 22.1985 20.2178 22.7371C19.6471 23.2757 19.1985 23.9304 18.9023 24.6572L18.7912 24.9535L17.6856 28.1921C16.8653 30.5927 13.5484 30.6654 12.5772 28.4116L12.4922 28.1921L11.3866 24.9548C11.133 24.2121 10.7232 23.5325 10.1846 22.9617C9.64599 22.391 8.99123 21.9424 8.26449 21.6462L7.9682 21.5351L4.7309 20.4295C2.32899 19.6092 2.25628 16.2923 4.51142 15.3211L4.7309 15.2361L7.9682 14.1304C8.71063 13.8768 9.39002 13.4668 9.96054 12.9282C10.5311 12.3896 10.9795 11.735 11.2755 11.0084L11.3866 10.7121L12.4922 7.4734ZM26.0628 2.74365C26.3194 2.74365 26.5709 2.81564 26.7886 2.95143C27.0064 3.08722 27.1817 3.28138 27.2946 3.51183L27.3605 3.67232L27.8406 5.07972L29.2493 5.55983C29.5065 5.6472 29.732 5.80896 29.8971 6.0246C30.0623 6.24023 30.1597 6.50004 30.177 6.7711C30.1943 7.04216 30.1308 7.31227 29.9945 7.54719C29.8582 7.78211 29.6552 7.97126 29.4112 8.09069L29.2493 8.15653L27.8419 8.63664L27.3618 10.0454C27.2743 10.3025 27.1124 10.5279 26.8967 10.6929C26.681 10.8579 26.4211 10.9551 26.1501 10.9723C25.879 10.9895 25.609 10.9259 25.3742 10.7894C25.1393 10.653 24.9503 10.4499 24.831 10.2059L24.7651 10.0454L24.285 8.63801L22.8762 8.1579C22.6191 8.07053 22.3936 7.90877 22.2285 7.69314C22.0633 7.4775 21.9659 7.21769 21.9486 6.94663C21.9312 6.67557 21.9948 6.40546 22.1311 6.17055C22.2674 5.93563 22.4704 5.74647 22.7144 5.62705L22.8762 5.5612L24.2836 5.08109L24.7638 3.67232C24.8563 3.4013 25.0313 3.16602 25.2642 2.99948C25.4972 2.83294 25.7764 2.74348 26.0628 2.74365Z" fill="white"/>
</svg>
