<svg width="32" height="32" viewBox="0 0 32 32" fill="none" xmlns="http://www.w3.org/2000/svg">
<path fill-rule="evenodd" clip-rule="evenodd" d="M14.6667 4.07333C11.9615 4.37655 9.43971 5.59009 7.5149 7.5149C5.59009 9.43971 4.37655 11.9615 4.07333 14.6667H0V17.3333H4.07333C4.37655 20.0385 5.59009 22.5603 7.5149 24.4851C9.43971 26.4099 11.9615 27.6235 14.6667 27.9267V32H17.3333V27.9267C20.0385 27.6235 22.5603 26.4099 24.4851 24.4851C26.4099 22.5603 27.6235 20.0385 27.9267 17.3333H32V14.6667H27.9267C27.6235 11.9615 26.4099 9.43971 24.4851 7.5149C22.5603 5.59009 20.0385 4.37655 17.3333 4.07333V0H14.6667V4.07333ZM16 21.3333C17.4145 21.3333 18.771 20.7714 19.7712 19.7712C20.7714 18.771 21.3333 17.4145 21.3333 16C21.3333 14.5855 20.7714 13.229 19.7712 12.2288C18.771 11.2286 17.4145 10.6667 16 10.6667C14.5855 10.6667 13.229 11.2286 12.2288 12.2288C11.2286 13.229 10.6667 14.5855 10.6667 16C10.6667 17.4145 11.2286 18.771 12.2288 19.7712C13.229 20.7714 14.5855 21.3333 16 21.3333ZM16 18.6667C15.2928 18.6667 14.6145 18.3857 14.1144 17.8856C13.6143 17.3855 13.3333 16.7072 13.3333 16C13.3333 15.2928 13.6143 14.6145 14.1144 14.1144C14.6145 13.6143 15.2928 13.3333 16 13.3333C16.7072 13.3333 17.3855 13.6143 17.8856 14.1144C18.3857 14.6145 18.6667 15.2928 18.6667 16C18.6667 16.7072 18.3857 17.3855 17.8856 17.8856C17.3855 18.3857 16.7072 18.6667 16 18.6667Z" fill="white"/>
</svg>
