<svg width="31" height="30" viewBox="0 0 31 30" fill="none" xmlns="http://www.w3.org/2000/svg">
<path fill-rule="evenodd" clip-rule="evenodd" d="M14.2083 3.81875C11.5877 4.10302 9.14472 5.24071 7.28006 7.04522C5.4154 8.84973 4.23978 11.2139 3.94604 13.75H0V16.25H3.94604C4.23978 18.7861 5.4154 21.1503 7.28006 22.9548C9.14472 24.7593 11.5877 25.897 14.2083 26.1812V30H16.7917V26.1812C19.4123 25.897 21.8553 24.7593 23.7199 22.9548C25.5846 21.1503 26.7602 18.7861 27.054 16.25H31V13.75H27.054C26.7602 11.2139 25.5846 8.84973 23.7199 7.04522C21.8553 5.24071 19.4123 4.10302 16.7917 3.81875V0H14.2083V3.81875ZM15.5 23.75C14.3126 23.75 13.1369 23.5237 12.0399 23.0839C10.9429 22.6442 9.94617 21.9997 9.10658 21.1872C8.26698 20.3747 7.60098 19.4101 7.14659 18.3485C6.6922 17.2869 6.45833 16.1491 6.45833 15C6.45833 13.8509 6.6922 12.7131 7.14659 11.6515C7.60098 10.5899 8.26698 9.62533 9.10658 8.81282C9.94617 8.0003 10.9429 7.35578 12.0399 6.91605C13.1369 6.47633 14.3126 6.25 15.5 6.25C17.898 6.25 20.1978 7.17187 21.8934 8.81282C23.5891 10.4538 24.5417 12.6794 24.5417 15C24.5417 17.3206 23.5891 19.5462 21.8934 21.1872C20.1978 22.8281 17.898 23.75 15.5 23.75ZM15.5 20C16.8703 20 18.1844 19.4732 19.1534 18.5355C20.1223 17.5979 20.6667 16.3261 20.6667 15C20.6667 13.6739 20.1223 12.4021 19.1534 11.4645C18.1844 10.5268 16.8703 10 15.5 10C14.1297 10 12.8156 10.5268 11.8466 11.4645C10.8777 12.4021 10.3333 13.6739 10.3333 15C10.3333 16.3261 10.8777 17.5979 11.8466 18.5355C12.8156 19.4732 14.1297 20 15.5 20ZM15.5 17.5C14.8149 17.5 14.1578 17.2366 13.6733 16.7678C13.1888 16.2989 12.9167 15.663 12.9167 15C12.9167 14.337 13.1888 13.7011 13.6733 13.2322C14.1578 12.7634 14.8149 12.5 15.5 12.5C16.1851 12.5 16.8422 12.7634 17.3267 13.2322C17.8112 13.7011 18.0833 14.337 18.0833 15C18.0833 15.663 17.8112 16.2989 17.3267 16.7678C16.8422 17.2366 16.1851 17.5 15.5 17.5Z" fill="#FFA629"/>
</svg>
