<svg width="31" height="31" viewBox="0 0 31 31" fill="none" xmlns="http://www.w3.org/2000/svg">
<path d="M21.7969 18.4033C21.804 18.5737 21.7822 18.7442 21.7328 18.9035C21.6834 19.0629 21.6075 19.2076 21.51 19.3283C21.4125 19.449 21.2957 19.543 21.167 19.6042C21.0383 19.6654 20.9007 19.6924 20.7631 19.6835H16.603C16.3233 19.7259 16.0394 19.6889 15.773 19.5752C15.5065 19.4615 15.2645 19.2742 15.0652 19.0274C14.8659 18.7806 14.7147 18.4809 14.6229 18.1509C14.5311 17.821 14.5012 17.4694 14.5354 17.123V14.5471C14.5282 14.3766 14.5501 14.2062 14.5995 14.0468C14.6489 13.8875 14.7248 13.7428 14.8223 13.6221C14.9197 13.5014 15.0366 13.4074 15.1653 13.3462C15.2939 13.285 15.4315 13.258 15.5692 13.2668H20.7631C20.9007 13.258 21.0383 13.285 21.167 13.3462C21.2957 13.4074 21.4125 13.5014 21.51 13.6221C21.6075 13.7428 21.6834 13.8875 21.7328 14.0468C21.7822 14.2062 21.804 14.3766 21.7969 14.5471V18.4033ZM10.3753 17.123C10.412 17.4721 10.3835 17.8269 10.292 18.1602C10.2004 18.4934 10.0483 18.7962 9.8473 19.0451C9.64631 19.294 9.40184 19.4824 9.13275 19.5957C8.86365 19.7091 8.57713 19.7444 8.29527 19.699H4.14763C4.00999 19.7078 3.87237 19.6808 3.7437 19.6196C3.61503 19.5584 3.49817 19.4644 3.40071 19.3437C3.30324 19.223 3.22734 19.0783 3.17793 18.9189C3.12851 18.7596 3.10667 18.5892 3.11384 18.4187V14.5471C3.10667 14.3766 3.12851 14.2062 3.17793 14.0468C3.22734 13.8875 3.30324 13.7428 3.40071 13.6221C3.49817 13.5014 3.61503 13.4074 3.7437 13.3462C3.87237 13.285 4.00999 13.258 4.14763 13.2668H9.34152C9.47917 13.258 9.61678 13.285 9.74546 13.3462C9.87413 13.4074 9.99098 13.5014 10.0884 13.6221C10.1859 13.7428 10.2618 13.8875 10.3112 14.0468C10.3606 14.2062 10.3825 14.3766 10.3753 14.5471V17.123ZM0 9.71914V19.4059C0 19.4877 0.0262451 19.5662 0.0729618 19.624C0.119678 19.6819 0.18304 19.7144 0.249107 19.7144H2.39143C2.56608 20.105 2.82253 20.43 3.13378 20.6553C3.44504 20.8806 3.79958 20.9978 4.16009 20.9946H8.30772C8.95147 21.0557 9.59433 20.8634 10.1446 20.4451C10.6948 20.0268 11.1243 19.404 11.3717 18.6655C11.3874 18.6072 11.4175 18.5564 11.4577 18.5205C11.498 18.4845 11.5463 18.4651 11.5959 18.465H13.3272C13.3769 18.4651 13.4252 18.4845 13.4654 18.5205C13.5057 18.5564 13.5358 18.6072 13.5514 18.6655C13.7948 19.4098 14.2226 20.0392 14.7732 20.4633C15.3238 20.8874 15.9688 21.0842 16.6154 21.0255H20.7631C21.4481 21.0255 22.1332 21.0255 22.4695 19.9458C22.4867 19.8886 22.5171 19.8391 22.557 19.8034C22.5969 19.7677 22.6445 19.7475 22.6937 19.7452H24.6616C24.7277 19.7452 24.791 19.7127 24.8378 19.6549C24.8845 19.597 24.9107 19.5186 24.9107 19.4367V9.71914C24.9107 9.63732 24.8845 9.55885 24.8378 9.501C24.791 9.44315 24.7277 9.41064 24.6616 9.41064H0.249107C0.18304 9.41064 0.119678 9.44315 0.0729618 9.501C0.0262451 9.55885 0 9.63732 0 9.71914Z" fill="#FFA629"/>
</svg>
