<svg width="31" height="31" viewBox="0 0 31 31" fill="none" xmlns="http://www.w3.org/2000/svg">
<path d="M28.1401 8.29734C27.9167 7.97865 27.6197 7.71849 27.2745 7.5389C26.9292 7.35931 26.5457 7.26557 26.1565 7.26562H16.9534V4.35938H18.4065C18.7919 4.35938 19.1615 4.20628 19.4341 3.93376C19.7066 3.66125 19.8597 3.29164 19.8597 2.90625C19.8597 2.52086 19.7066 2.15125 19.4341 1.87874C19.1615 1.60622 18.7919 1.45313 18.4065 1.45312H12.594C12.2086 1.45313 11.839 1.60622 11.5665 1.87874C11.294 2.15125 11.1409 2.52086 11.1409 2.90625C11.1409 3.29164 11.294 3.66125 11.5665 3.93376C11.839 4.20628 12.2086 4.35937 12.594 4.35938H14.0472V7.26562H4.84404C4.45478 7.26558 4.07125 7.35936 3.72594 7.53902C3.38063 7.71868 3.08371 7.97892 2.86033 8.2977C2.63696 8.61649 2.49372 8.98441 2.44274 9.37031C2.39176 9.75622 2.43454 10.1487 2.56747 10.5146L5.73892 19.2333C5.90957 19.6999 6.2192 20.103 6.62606 20.3882C7.03291 20.6733 7.51743 20.8269 8.01427 20.8281H11.1409V28.0938C11.1409 28.4791 11.294 28.8488 11.5665 29.1213C11.839 29.3938 12.2086 29.5469 12.594 29.5469C12.9794 29.5469 13.349 29.3938 13.6216 29.1213C13.8941 28.8488 14.0472 28.4791 14.0472 28.0938V20.8281H16.9534V28.0938C16.9534 28.4791 17.1065 28.8488 17.379 29.1213C17.6515 29.3938 18.0211 29.5469 18.4065 29.5469C18.7919 29.5469 19.1615 29.3938 19.4341 29.1213C19.7066 28.8488 19.8597 28.4791 19.8597 28.0938V20.8281H22.9863C23.4831 20.8269 23.9677 20.6733 24.3745 20.3882C24.7814 20.103 25.091 19.6999 25.2617 19.2333L28.4331 10.5146C28.5661 10.1487 28.6089 9.75607 28.5578 9.3701C28.5068 8.98414 28.3635 8.61615 28.1401 8.29734ZM13.805 17.9219L12.3979 10.1719H18.6027L17.1956 17.9219H13.805ZM5.53548 10.1719H9.4456L10.8551 17.9219H8.35576L5.53548 10.1719ZM22.6448 17.9219H20.1479L21.555 10.1719H25.4627L22.6448 17.9219Z" fill="#FFA629"/>
</svg>
