<svg width="29" height="29" viewBox="0 0 29 29" fill="none" xmlns="http://www.w3.org/2000/svg">
<path d="M17.4303 1.8104V1.7749C15.8328 1.7749 14.3536 2.22457 12.9928 3.12391C11.6201 4.02324 10.6083 5.21545 9.9575 6.70054C9.30666 8.19155 9.09958 9.74468 9.33625 11.3599C9.567 12.9693 10.2237 14.3893 11.3065 15.6199L3.25685 24.85L4.36623 25.8529L12.3804 16.6583C13.4336 17.4926 14.6139 18.034 15.9215 18.2825C17.2232 18.525 18.5101 18.457 19.7822 18.0783C21.0483 17.6937 22.1607 17.034 23.1192 16.0992C24.0777 15.1644 24.7729 14.0639 25.2048 12.7977C25.6367 11.5315 25.761 10.2387 25.5775 8.9193C25.3941 7.59988 24.9149 6.39287 24.1398 5.29829C23.3647 4.2037 22.3855 3.34874 21.2022 2.73341C20.0188 2.11807 18.7615 1.8104 17.4303 1.8104ZM17.4303 16.9157C16.0813 16.9157 14.8388 16.5282 13.7028 15.7531C12.5727 14.978 11.7503 13.9544 11.2355 12.6823C10.7148 11.4161 10.5906 10.1145 10.8628 8.7773C11.1349 7.43421 11.7503 6.27454 12.7088 5.29829C13.6673 4.32203 14.8121 3.70078 16.1434 3.43453C17.4746 3.16236 18.7674 3.29253 20.0218 3.82503C21.2761 4.35754 22.279 5.19475 23.0304 6.33667C23.7818 7.47859 24.1575 8.72701 24.1575 10.0819C24.1575 10.9931 23.9919 11.8658 23.6605 12.7001C23.3233 13.5402 22.8411 14.2798 22.2139 14.9188C21.5867 15.5578 20.8619 16.0519 20.0395 16.4009C19.2112 16.7441 18.3414 16.9157 17.4303 16.9157ZM17.4835 3.28366C16.1523 3.28366 14.9216 3.64457 13.7915 4.36641C12.6555 5.09416 11.8124 6.07337 11.2621 7.30404C10.706 8.53471 10.5314 9.81568 10.7385 11.1469C10.9515 12.4723 11.5018 13.6408 12.3893 14.6526L5.67974 22.2673L6.64711 23.1193L13.2501 15.5489C14.1376 16.2353 15.1228 16.679 16.2055 16.8802C17.2883 17.0754 18.3533 17.0163 19.4005 16.7027C20.4478 16.3891 21.3767 15.8507 22.1873 15.0874C22.986 14.3124 23.5659 13.4012 23.9268 12.3539C24.2818 11.3067 24.3794 10.2358 24.2197 9.14118C24.0599 8.04659 23.6605 7.04963 23.0215 6.15029C22.3825 5.25095 21.5749 4.54983 20.5987 4.04691C19.6283 3.54399 18.5899 3.29253 17.4835 3.29253V3.28366ZM17.4835 15.7264C16.3475 15.7264 15.3121 15.4129 14.3773 14.7857C13.4424 14.1585 12.762 13.3213 12.336 12.2741C11.8982 11.2268 11.7917 10.15 12.0165 9.04355C12.2413 7.93713 12.7531 6.97567 13.5519 6.15917C14.3506 5.34858 15.3032 4.83087 16.4096 4.60604C17.5161 4.38712 18.587 4.49954 19.6224 4.94329C20.6578 5.38704 21.495 6.07633 22.134 7.01117C22.8736 8.11759 23.1754 9.33643 23.0393 10.6677C22.9032 11.993 22.3677 13.1379 21.4329 14.1023C20.9122 14.6171 20.3087 15.0164 19.6224 15.3004C18.9302 15.5844 18.2172 15.7264 17.4835 15.7264ZM5.36023 26.625L2.75098 24.3352L11.8656 13.9958L14.4571 16.2856L5.36023 26.625Z" fill="#FFA629"/>
</svg>
