<svg width="29" height="29" viewBox="0 0 29 29" fill="none" xmlns="http://www.w3.org/2000/svg">
<path d="M11.9542 10.9666L13.0176 7.24707C13.4161 5.85479 15.3893 5.85479 15.7878 7.24707L16.85 10.9666C16.9172 11.2019 17.0433 11.4162 17.2164 11.5892C17.3894 11.7623 17.6037 11.8884 17.839 11.9556L21.5585 13.0178C22.9508 13.4163 22.9508 15.3895 21.5585 15.788L17.839 16.8502C17.6037 16.9175 17.3894 17.0436 17.2164 17.2166C17.0433 17.3896 16.9172 17.6039 16.85 17.8392L15.7878 21.5588C15.3893 22.951 13.4161 22.951 13.0176 21.5588L11.9554 17.8392C11.8881 17.6039 11.762 17.3896 11.589 17.2166C11.4159 17.0436 11.2017 16.9175 10.9664 16.8502L7.24683 15.788C5.85455 15.3895 5.85455 13.4163 7.24683 13.0178L10.9664 11.9556C11.2017 11.8884 11.4159 11.7623 11.589 11.5892C11.762 11.4162 11.8881 11.2019 11.9554 10.9666M21.7289 19.8124C22.0758 18.8006 23.5341 18.7994 23.8798 19.8124L23.911 19.9168L24.2663 21.3427L25.6921 21.6992C26.8444 21.9872 26.8444 23.622 25.6921 23.91L24.2663 24.2665L23.911 25.6924C23.6229 26.8434 21.987 26.8434 21.6989 25.6924L21.3425 24.2665L19.9166 23.91C18.7643 23.622 18.7643 21.986 19.9166 21.6992L21.3425 21.3427L21.6989 19.9168L21.7289 19.8124ZM22.8044 22.561C22.7353 22.6535 22.6532 22.7355 22.5607 22.8046C22.6532 22.8737 22.7353 22.9557 22.8044 23.0483C22.8734 22.9557 22.9555 22.8737 23.048 22.8046C22.9554 22.7352 22.8733 22.6527 22.8044 22.5598M4.92556 3.00782C5.28323 1.96241 6.82795 1.99721 7.1076 3.11224L7.46287 4.53813L8.88876 4.8946C10.041 5.18266 10.041 6.81738 8.88876 7.10544L7.46287 7.46191L7.1076 8.8878C6.81954 10.0388 5.18361 10.0388 4.89556 8.8878L4.53908 7.46191L3.1132 7.10544C1.96097 6.81738 1.96097 5.18146 3.1132 4.8946L4.53908 4.53813L4.89556 3.11224L4.92556 3.00782ZM6.00098 5.75757C5.93182 5.84966 5.84976 5.93131 5.75733 6.00002C5.84993 6.06946 5.93199 6.15193 6.00098 6.24487C6.06996 6.15193 6.15203 6.06946 6.24463 6.00002C6.15212 5.93095 6.07005 5.85008 6.00098 5.75757Z" fill="#FFA629"/>
</svg>
