<svg width="32" height="32" viewBox="0 0 32 32" fill="none" xmlns="http://www.w3.org/2000/svg">
<path d="M8.47633 12C4.96033 12.9067 2.66699 14.46 2.66699 16.2333C2.66699 19.0427 8.54033 21.3333 15.8003 21.3333C16.787 21.3333 17.4803 21.2813 18.4003 21.204" stroke="#FFA629" stroke-width="2.66667" stroke-linecap="round" stroke-linejoin="round"/>
<path d="M13.1168 21.1998C12.5661 20.4051 12.0421 19.6891 11.5435 18.7998C7.87547 12.2665 6.8928 5.77314 9.37014 4.30248C10.9035 3.37314 13.4328 4.63981 16.0021 7.30781" stroke="#FFA629" stroke-width="2.66667" stroke-linecap="round" stroke-linejoin="round"/>
<path d="M8.57261 20.516C7.63661 24.1 7.82595 26.804 9.31928 27.7093C11.6966 29.1493 16.5019 25.0987 20.0433 18.6373C20.5233 17.744 20.9535 16.8649 21.3339 16" stroke="#FFA629" stroke-width="2.66667" stroke-linecap="round" stroke-linejoin="round"/>
<path d="M16 24.6931C18.5707 27.3598 21.0893 28.6265 22.6373 27.6971C25.104 26.2278 24.132 19.7345 20.46 13.1998C19.948 12.2971 19.424 11.5945 18.8867 10.7998" stroke="#FFA629" stroke-width="2.66667" stroke-linecap="round" stroke-linejoin="round"/>
<path d="M23.5473 19.9998C27.0299 19.0838 29.3339 17.5332 29.3339 15.7652C29.3339 12.9518 23.4566 10.6665 16.2073 10.6665C15.2113 10.6665 14.5193 10.7052 13.6006 10.7825" stroke="#FFA629" stroke-width="2.66667" stroke-linecap="round" stroke-linejoin="round"/>
<path d="M10.667 15.9997C11.047 15.1197 11.4763 14.2557 11.9577 13.3623C15.487 6.90368 20.295 2.84235 22.6857 4.29435C24.1657 5.19968 24.3683 7.90235 23.4323 11.485M16.347 16.0197H16.3337C16.3203 16.193 16.1737 16.3397 15.987 16.3397C15.8977 16.3353 15.8135 16.2969 15.7515 16.2325C15.6896 16.1681 15.6546 16.0824 15.6537 15.993C15.6537 15.8063 15.8003 15.6597 15.9737 15.6597H15.9603C16.1337 15.6463 16.2937 15.8063 16.2937 15.9797" stroke="#FFA629" stroke-width="2.66667" stroke-linecap="round" stroke-linejoin="round"/>
</svg>
