<svg width="265" height="264" viewBox="0 0 265 264" fill="none" xmlns="http://www.w3.org/2000/svg">
<g filter="url(#filter0_d_853_9220)">
<rect x="100" y="70" width="65" height="64" rx="32" fill="url(#paint0_linear_853_9220)"/>
<g filter="url(#filter1_f_853_9220)">
<rect x="100.844" y="70.8308" width="63.3117" height="62.3377" rx="31.1688" fill="url(#paint1_linear_853_9220)"/>
<rect x="101.094" y="71.0808" width="62.8117" height="61.8377" rx="30.9188" stroke="url(#paint2_linear_853_9220)" stroke-width="0.5"/>
</g>
<g filter="url(#filter2_f_853_9220)">
<path d="M149.866 89.5801C148.392 90.2235 146.806 90.6576 145.141 90.8518C146.841 89.8527 148.144 88.27 148.758 86.382C147.169 87.3084 145.409 87.9807 143.534 88.3435C142.034 86.7737 139.896 85.7921 137.53 85.7921C132.987 85.7921 129.304 89.409 129.304 93.8708C129.304 94.5031 129.377 95.1194 129.517 95.7117C122.68 95.3744 116.618 92.1587 112.56 87.2709C111.852 88.4634 111.447 89.8511 111.447 91.333C111.447 94.1354 112.899 96.6085 115.106 98.0569C113.759 98.0145 112.49 97.6508 111.38 97.0457C111.379 97.0793 111.379 97.1137 111.379 97.1481C111.379 101.062 114.215 104.326 117.979 105.069C117.289 105.253 116.562 105.352 115.811 105.352C115.281 105.352 114.765 105.302 114.263 105.207C115.311 108.416 118.348 110.752 121.948 110.817C119.132 112.984 115.586 114.276 111.731 114.276C111.068 114.276 110.412 114.238 109.769 114.162C113.41 116.456 117.734 117.792 122.379 117.792C137.511 117.792 145.785 105.483 145.785 94.8069C145.785 94.4567 145.778 94.1074 145.762 93.7605C147.369 92.6239 148.764 91.2003 149.866 89.5801Z" fill="#13488C" fill-opacity="0.5"/>
</g>
<path d="M141.751 86.0421C144.047 86.0422 146.12 86.9949 147.574 88.5167L147.669 88.6154L147.803 88.589C149.473 88.2657 151.052 87.6991 152.505 86.9298C151.845 88.4813 150.692 89.7794 149.235 90.6359L149.391 91.0997C150.78 90.9376 152.115 90.6076 153.379 90.1329C152.383 91.4423 151.186 92.6029 149.838 93.5568L149.727 93.6349L149.733 93.7716C149.749 94.1145 149.756 94.4602 149.756 94.8068C149.756 105.371 141.569 117.542 126.6 117.542C122.39 117.542 118.449 116.431 115.048 114.501C115.347 114.517 115.649 114.526 115.952 114.526C119.864 114.525 123.463 113.215 126.321 111.016L126.887 110.58L126.173 110.568C122.829 110.507 119.989 108.426 118.862 105.521C119.244 105.573 119.634 105.603 120.032 105.603C120.805 105.603 121.553 105.5 122.264 105.311L122.248 104.824C118.695 104.123 116.001 101.107 115.856 97.4562C116.907 97.9638 118.081 98.2678 119.319 98.3068L120.206 98.3351L119.464 97.8478C117.323 96.443 115.918 94.0465 115.918 91.3331C115.918 90.0231 116.245 88.7897 116.823 87.7062C120.921 92.4909 126.946 95.6266 133.726 95.9611L134.059 95.9777L133.981 95.6534C133.845 95.0806 133.774 94.4841 133.774 93.8712C133.774 89.5517 137.342 86.0421 141.751 86.0421Z" fill="white" fill-opacity="0.9" stroke="url(#paint3_linear_853_9220)" stroke-width="0.5"/>
</g>
<defs>
<filter id="filter0_d_853_9220" x="0" y="0" width="265" height="264" filterUnits="userSpaceOnUse" color-interpolation-filters="sRGB">
<feFlood flood-opacity="0" result="BackgroundImageFix"/>
<feColorMatrix in="SourceAlpha" type="matrix" values="0 0 0 0 0 0 0 0 0 0 0 0 0 0 0 0 0 0 127 0" result="hardAlpha"/>
<feOffset dy="30"/>
<feGaussianBlur stdDeviation="50"/>
<feComposite in2="hardAlpha" operator="out"/>
<feColorMatrix type="matrix" values="0 0 0 0 0 0 0 0 0 0 0 0 0 0 0 0 0 0 0.15 0"/>
<feBlend mode="normal" in2="BackgroundImageFix" result="effect1_dropShadow_853_9220"/>
<feBlend mode="normal" in="SourceGraphic" in2="effect1_dropShadow_853_9220" result="shape"/>
</filter>
<filter id="filter1_f_853_9220" x="95.8438" y="65.8308" width="73.3115" height="72.3376" filterUnits="userSpaceOnUse" color-interpolation-filters="sRGB">
<feFlood flood-opacity="0" result="BackgroundImageFix"/>
<feBlend mode="normal" in="SourceGraphic" in2="BackgroundImageFix" result="shape"/>
<feGaussianBlur stdDeviation="2.5" result="effect1_foregroundBlur_853_9220"/>
</filter>
<filter id="filter2_f_853_9220" x="104.769" y="80.7921" width="50.0977" height="42" filterUnits="userSpaceOnUse" color-interpolation-filters="sRGB">
<feFlood flood-opacity="0" result="BackgroundImageFix"/>
<feBlend mode="normal" in="SourceGraphic" in2="BackgroundImageFix" result="shape"/>
<feGaussianBlur stdDeviation="2.5" result="effect1_foregroundBlur_853_9220"/>
</filter>
<linearGradient id="paint0_linear_853_9220" x1="131.234" y1="132.338" x2="132.461" y2="73.5317" gradientUnits="userSpaceOnUse">
<stop stop-color="#0065A3"/>
<stop offset="0.869762" stop-color="#58C0FF"/>
</linearGradient>
<linearGradient id="paint1_linear_853_9220" x1="132.5" y1="77.6879" x2="132.5" y2="126.311" gradientUnits="userSpaceOnUse">
<stop stop-color="#1DA1F2"/>
<stop offset="1" stop-color="#1DA1F2" stop-opacity="0.6"/>
</linearGradient>
<linearGradient id="paint2_linear_853_9220" x1="132.5" y1="70.8308" x2="132.5" y2="133.168" gradientUnits="userSpaceOnUse">
<stop stop-color="#1DA1F2"/>
<stop offset="1" stop-color="#046EAE"/>
</linearGradient>
<linearGradient id="paint3_linear_853_9220" x1="134.038" y1="85.7921" x2="134.038" y2="117.792" gradientUnits="userSpaceOnUse">
<stop stop-color="white"/>
<stop offset="1" stop-color="white" stop-opacity="0"/>
</linearGradient>
</defs>
</svg>
