<svg width="32" height="32" viewBox="0 0 32 32" fill="none" xmlns="http://www.w3.org/2000/svg">
<path fill-rule="evenodd" clip-rule="evenodd" d="M10 27V20H5C3.67392 20 2.40215 19.4732 1.46447 18.5355C0.526784 17.5979 0 16.3261 0 15L0 5C0 3.67392 0.526784 2.40215 1.46447 1.46447C2.40215 0.526784 3.67392 0 5 0L19 0C19.6566 0 20.3068 0.129329 20.9134 0.380602C21.52 0.631876 22.0712 1.00017 22.5355 1.46447C22.9998 1.92876 23.3681 2.47995 23.6194 3.08658C23.8707 3.69321 24 4.34339 24 5V10H27C28.3261 10 29.5979 10.5268 30.5355 11.4645C31.4732 12.4021 32 13.6739 32 15V27C32 28.3261 31.4732 29.5979 30.5355 30.5355C29.5979 31.4732 28.3261 32 27 32H15C13.6739 32 12.4021 31.4732 11.4645 30.5355C10.5268 29.5979 10 28.3261 10 27ZM2 5C2 4.20435 2.31607 3.44129 2.87868 2.87868C3.44129 2.31607 4.20435 2 5 2H6V6H2V5ZM2 8H6V12H2V8ZM2 14H6V18H5C4.20435 18 3.44129 17.6839 2.87868 17.1213C2.31607 16.5587 2 15.7956 2 15V14ZM8 18V2H16V10H15C13.6739 10 12.4021 10.5268 11.4645 11.4645C10.5268 12.4021 10 13.6739 10 15V18H8ZM22 10V8H18V10H22ZM22 5V6H18V2H19C19.7956 2 20.5587 2.31607 21.1213 2.87868C21.6839 3.44129 22 4.20435 22 5ZM15 12C14.2044 12 13.4413 12.3161 12.8787 12.8787C12.3161 13.4413 12 14.2044 12 15V27C12 27.978 12.468 28.846 13.192 29.4L24.292 18.3C24.4795 18.1125 24.7338 18.0072 24.999 18.0072C25.2642 18.0072 25.5185 18.1125 25.706 18.3L30.006 22.6V15.02C30.006 14.2244 29.6899 13.4613 29.1273 12.8987C28.5647 12.3361 27.8016 12.02 27.006 12.02H15.006L15 12ZM30 25.42L25 20.42L15.42 30H27C27.7956 30 28.5587 29.6839 29.1213 29.1213C29.6839 28.5587 30 27.7956 30 27V25.414V25.42Z" fill="#FFA629"/>
</svg>
