<svg width="265" height="258" viewBox="0 0 265 258" fill="none" xmlns="http://www.w3.org/2000/svg">
<g filter="url(#filter0_d_821_10781)">
<rect x="100" y="70" width="64.1574" height="57.9997" rx="28.9998" fill="url(#paint0_linear_821_10781)"/>
<g filter="url(#filter1_f_821_10781)">
<rect x="100.833" y="70.7529" width="62.491" height="56.4932" rx="28.2466" fill="url(#paint1_linear_821_10781)"/>
<rect x="101.083" y="71.0029" width="61.991" height="55.9932" rx="27.9966" stroke="url(#paint2_linear_821_10781)" stroke-width="0.5"/>
</g>
<g filter="url(#filter2_f_821_10781)">
<path fill-rule="evenodd" clip-rule="evenodd" d="M137.787 102.215C137.341 102.014 135.15 101.044 134.741 100.91C134.333 100.776 134.036 100.709 133.738 101.111C133.441 101.512 132.587 102.416 132.327 102.683C132.067 102.951 131.807 102.984 131.361 102.784C130.916 102.583 129.479 102.159 127.777 100.793C126.452 99.7297 125.557 98.4164 125.297 98.0149C125.037 97.6135 125.269 97.3964 125.492 97.1965C125.693 97.0168 125.938 96.7281 126.161 96.4939C126.384 96.2598 126.458 96.0924 126.607 95.8249C126.755 95.5572 126.681 95.323 126.57 95.1223C126.458 94.9216 125.567 92.9476 125.195 92.1446C124.834 91.3627 124.466 91.4686 124.193 91.4562C123.933 91.4446 123.635 91.4421 123.338 91.4421C123.041 91.4421 122.558 91.5425 122.15 91.9438C121.741 92.3453 120.59 93.3156 120.59 95.2894C120.59 97.2635 122.187 99.1703 122.41 99.438C122.632 99.7057 125.553 103.756 130.024 105.493C131.088 105.907 131.918 106.153 132.565 106.338C133.633 106.643 134.605 106.6 135.373 106.497C136.229 106.382 138.01 105.527 138.381 104.59C138.753 103.653 138.753 102.85 138.641 102.683C138.53 102.516 138.233 102.416 137.787 102.215V102.215ZM129.654 112.206H129.648C126.987 112.205 124.378 111.562 122.101 110.346L121.56 110.057L115.948 111.382L117.446 106.459L117.094 105.954C115.609 103.83 114.825 101.376 114.827 98.8549C114.83 91.4998 121.481 85.516 129.66 85.516C133.62 85.5172 137.343 86.9066 140.143 89.4281C142.942 91.9496 144.483 95.3012 144.481 98.8656C144.478 106.221 137.826 112.206 129.654 112.206V112.206ZM142.273 87.5121C138.905 84.4784 134.426 82.8069 129.654 82.8052C119.821 82.8052 111.818 90.0047 111.815 98.8539C111.813 101.683 112.635 104.444 114.196 106.878L111.665 115.195L121.122 112.963C123.727 114.241 126.661 114.915 129.647 114.916H129.654C139.486 114.916 147.489 107.716 147.493 98.8667C147.495 94.5782 145.641 90.5458 142.273 87.5121" fill="#008F36"/>
</g>
<mask id="path-5-inside-1_821_10781" fill="white">
<path fill-rule="evenodd" clip-rule="evenodd" d="M141.12 101.461C140.674 101.261 138.483 100.291 138.074 100.157C137.666 100.023 137.369 99.9559 137.071 100.357C136.774 100.759 135.92 101.662 135.66 101.93C135.4 102.197 135.14 102.231 134.694 102.03C134.249 101.829 132.812 101.406 131.11 100.04C129.785 98.9762 128.89 97.663 128.63 97.2615C128.37 96.86 128.602 96.643 128.825 96.4431C129.026 96.2634 129.271 95.9747 129.494 95.7405C129.717 95.5064 129.791 95.339 129.94 95.0715C130.088 94.8038 130.014 94.5696 129.903 94.3689C129.791 94.1682 128.9 92.1942 128.528 91.3911C128.167 90.6093 127.799 90.7152 127.526 90.7028C127.266 90.6912 126.968 90.6887 126.671 90.6887C126.374 90.6887 125.891 90.7891 125.483 91.1904C125.074 91.5919 123.923 92.5622 123.923 94.536C123.923 96.5101 125.52 98.4169 125.743 98.6846C125.965 98.9523 128.886 103.003 133.357 104.74C134.421 105.153 135.251 105.4 135.898 105.585C136.966 105.89 137.938 105.847 138.706 105.744C139.562 105.629 141.343 104.774 141.714 103.837C142.086 102.9 142.086 102.097 141.974 101.93C141.863 101.762 141.566 101.662 141.12 101.461V101.461ZM132.987 111.452H132.981C130.32 111.451 127.711 110.808 125.434 109.593L124.893 109.304L119.281 110.628L120.779 105.706L120.427 105.201C118.942 103.077 118.158 100.622 118.16 98.1014C118.163 90.7464 124.814 84.7625 132.993 84.7625C136.953 84.7637 140.676 86.1532 143.476 88.6747C146.275 91.1962 147.816 94.5478 147.814 98.1122C147.811 105.468 141.159 111.452 132.987 111.452V111.452ZM145.606 86.7587C142.238 83.725 137.759 82.0535 132.987 82.0518C123.154 82.0518 115.152 89.2513 115.148 98.1004C115.146 100.929 115.968 103.69 117.529 106.124L114.998 114.441L124.455 112.209C127.06 113.488 129.994 114.162 132.98 114.163H132.987C142.819 114.163 150.822 106.963 150.826 98.1133C150.828 93.8248 148.974 89.7924 145.606 86.7587"/>
</mask>
<path fill-rule="evenodd" clip-rule="evenodd" d="M141.12 101.461C140.674 101.261 138.483 100.291 138.074 100.157C137.666 100.023 137.369 99.9559 137.071 100.357C136.774 100.759 135.92 101.662 135.66 101.93C135.4 102.197 135.14 102.231 134.694 102.03C134.249 101.829 132.812 101.406 131.11 100.04C129.785 98.9762 128.89 97.663 128.63 97.2615C128.37 96.86 128.602 96.643 128.825 96.4431C129.026 96.2634 129.271 95.9747 129.494 95.7405C129.717 95.5064 129.791 95.339 129.94 95.0715C130.088 94.8038 130.014 94.5696 129.903 94.3689C129.791 94.1682 128.9 92.1942 128.528 91.3911C128.167 90.6093 127.799 90.7152 127.526 90.7028C127.266 90.6912 126.968 90.6887 126.671 90.6887C126.374 90.6887 125.891 90.7891 125.483 91.1904C125.074 91.5919 123.923 92.5622 123.923 94.536C123.923 96.5101 125.52 98.4169 125.743 98.6846C125.965 98.9523 128.886 103.003 133.357 104.74C134.421 105.153 135.251 105.4 135.898 105.585C136.966 105.89 137.938 105.847 138.706 105.744C139.562 105.629 141.343 104.774 141.714 103.837C142.086 102.9 142.086 102.097 141.974 101.93C141.863 101.762 141.566 101.662 141.12 101.461V101.461ZM132.987 111.452H132.981C130.32 111.451 127.711 110.808 125.434 109.593L124.893 109.304L119.281 110.628L120.779 105.706L120.427 105.201C118.942 103.077 118.158 100.622 118.16 98.1014C118.163 90.7464 124.814 84.7625 132.993 84.7625C136.953 84.7637 140.676 86.1532 143.476 88.6747C146.275 91.1962 147.816 94.5478 147.814 98.1122C147.811 105.468 141.159 111.452 132.987 111.452V111.452ZM145.606 86.7587C142.238 83.725 137.759 82.0535 132.987 82.0518C123.154 82.0518 115.152 89.2513 115.148 98.1004C115.146 100.929 115.968 103.69 117.529 106.124L114.998 114.441L124.455 112.209C127.06 113.488 129.994 114.162 132.98 114.163H132.987C142.819 114.163 150.822 106.963 150.826 98.1133C150.828 93.8248 148.974 89.7924 145.606 86.7587" fill="white" fill-opacity="0.9"/>
<path d="M138.074 100.157L138.23 99.6815L138.23 99.6814L138.074 100.157ZM137.071 100.357L136.67 100.06L136.67 100.06L137.071 100.357ZM135.66 101.93L135.301 101.581L135.301 101.581L135.66 101.93ZM134.694 102.03L134.9 101.574L134.9 101.574L134.694 102.03ZM131.11 100.04L131.423 99.6497L131.423 99.6497L131.11 100.04ZM128.63 97.2615L129.05 96.9898L129.05 96.9897L128.63 97.2615ZM128.825 96.4431L128.492 96.0706L128.492 96.0707L128.825 96.4431ZM129.494 95.7405L129.132 95.3956L129.132 95.3958L129.494 95.7405ZM129.94 95.0715L130.377 95.3142L130.377 95.3141L129.94 95.0715ZM129.903 94.3689L129.465 94.6115L129.466 94.6118L129.903 94.3689ZM128.528 91.3911L128.982 91.1812L128.982 91.1811L128.528 91.3911ZM127.526 90.7028L127.548 90.2033L127.548 90.2032L127.526 90.7028ZM125.483 91.1904L125.132 90.8337L125.132 90.8338L125.483 91.1904ZM133.357 104.74L133.538 104.274L133.538 104.274L133.357 104.74ZM135.898 105.585L136.036 105.104L136.035 105.104L135.898 105.585ZM138.706 105.744L138.639 105.248L138.639 105.248L138.706 105.744ZM141.714 103.837L142.179 104.021L142.179 104.021L141.714 103.837ZM132.981 111.452L132.981 111.952H132.981V111.452ZM125.434 109.593L125.199 110.034L125.199 110.034L125.434 109.593ZM124.893 109.304L125.128 108.863L124.962 108.774L124.778 108.817L124.893 109.304ZM119.281 110.628L118.803 110.483L118.55 111.315L119.396 111.115L119.281 110.628ZM120.779 105.706L121.257 105.851L121.328 105.619L121.189 105.419L120.779 105.706ZM120.427 105.201L120.837 104.915L120.836 104.914L120.427 105.201ZM118.16 98.1014L118.66 98.1017L118.66 98.1017L118.16 98.1014ZM132.993 84.7625L132.993 84.2625H132.993V84.7625ZM143.476 88.6747L143.81 88.3032L143.476 88.6747ZM147.814 98.1122L148.314 98.1124L148.314 98.1124L147.814 98.1122ZM132.987 82.0518L132.987 81.5518H132.987V82.0518ZM115.148 98.1004L114.648 98.1002L114.648 98.1002L115.148 98.1004ZM117.529 106.124L118.007 106.27L118.074 106.049L117.95 105.854L117.529 106.124ZM114.998 114.441L114.52 114.296L114.267 115.128L115.113 114.928L114.998 114.441ZM124.455 112.209L124.675 111.76L124.514 111.682L124.34 111.723L124.455 112.209ZM132.98 114.163L132.98 114.663H132.98V114.163ZM150.826 98.1133L151.326 98.1135L151.326 98.1135L150.826 98.1133ZM141.12 101.461L141.325 101.005C141.1 100.904 140.439 100.61 139.782 100.325C139.141 100.047 138.463 99.7577 138.23 99.6815L138.074 100.157L137.918 100.632C138.095 100.689 138.716 100.952 139.384 101.243C140.037 101.526 140.694 101.818 140.915 101.917L141.12 101.461ZM138.074 100.157L138.23 99.6814C138.038 99.6186 137.764 99.5296 137.48 99.5589C137.146 99.5933 136.881 99.7744 136.67 100.06L137.071 100.357L137.473 100.655C137.52 100.591 137.552 100.568 137.563 100.56C137.571 100.555 137.575 100.554 137.582 100.554C137.595 100.552 137.625 100.552 137.685 100.564C137.746 100.577 137.818 100.599 137.919 100.632L138.074 100.157ZM137.071 100.357L136.67 100.06C136.396 100.429 135.568 101.307 135.301 101.581L135.66 101.93L136.019 102.278C136.272 102.017 137.152 101.089 137.473 100.655L137.071 100.357ZM135.66 101.93L135.301 101.581C135.225 101.66 135.196 101.658 135.192 101.659C135.169 101.661 135.09 101.66 134.9 101.574L134.694 102.03L134.489 102.486C134.745 102.601 135.018 102.684 135.301 102.653C135.604 102.62 135.835 102.467 136.019 102.278L135.66 101.93ZM134.694 102.03L134.9 101.574C134.405 101.352 133.06 100.964 131.423 99.6497L131.11 100.04L130.797 100.43C132.564 101.848 134.092 102.307 134.489 102.486L134.694 102.03ZM131.11 100.04L131.423 99.6497C130.16 98.6361 129.299 97.3754 129.05 96.9898L128.63 97.2615L128.21 97.5333C128.481 97.9506 129.41 99.3164 130.797 100.43L131.11 100.04ZM128.63 97.2615L129.05 96.9897C129.014 96.9341 129.013 96.9134 129.015 96.9224C129.017 96.9365 129.014 96.9554 129.009 96.9676C129.006 96.9736 129.009 96.963 129.036 96.9327C129.065 96.9011 129.102 96.8671 129.159 96.8155L128.825 96.4431L128.492 96.0707C128.398 96.1551 128.189 96.3328 128.084 96.5859C127.955 96.8996 128.012 97.2271 128.21 97.5333L128.63 97.2615ZM128.825 96.4431L129.159 96.8155C129.378 96.6194 129.668 96.2833 129.856 96.0851L129.494 95.7405L129.132 95.3958C128.875 95.666 128.674 95.9073 128.492 96.0706L128.825 96.4431ZM129.494 95.7405L129.856 96.0853C130.133 95.7942 130.241 95.5593 130.377 95.3142L129.94 95.0715L129.503 94.8287C129.342 95.1187 129.301 95.2185 129.132 95.3956L129.494 95.7405ZM129.94 95.0715L130.377 95.3141C130.648 94.8252 130.487 94.3908 130.34 94.126L129.903 94.3689L129.466 94.6118C129.506 94.6851 129.519 94.7285 129.522 94.7542C129.524 94.7651 129.523 94.7734 129.522 94.7816C129.52 94.7898 129.516 94.8052 129.503 94.8288L129.94 95.0715ZM129.903 94.3689L130.34 94.1264C130.34 94.1264 130.338 94.1235 130.335 94.1162C130.331 94.1094 130.326 94.1004 130.321 94.0891C130.31 94.0663 130.295 94.0368 130.278 94.0005C130.243 93.9282 130.199 93.8333 130.147 93.721C130.042 93.4967 129.909 93.2072 129.768 92.8979C129.485 92.281 129.168 91.584 128.982 91.1812L128.528 91.3911L128.075 91.601C128.26 92.0014 128.574 92.6929 128.858 93.3139C129.134 93.9167 129.397 94.4888 129.465 94.6115L129.903 94.3689ZM128.528 91.3911L128.982 91.1811C128.773 90.7284 128.518 90.4377 128.189 90.2982C127.908 90.1784 127.573 90.2044 127.548 90.2033L127.526 90.7028L127.503 91.2022C127.552 91.2045 127.602 91.204 127.635 91.2038C127.672 91.2036 127.697 91.2037 127.721 91.2049C127.765 91.2072 127.785 91.2127 127.798 91.2185C127.813 91.2247 127.922 91.272 128.075 91.6011L128.528 91.3911ZM127.526 90.7028L127.548 90.2032C127.276 90.1911 126.969 90.1887 126.671 90.1887V90.6887V91.1887C126.967 91.1887 127.255 91.1912 127.503 91.2023L127.526 90.7028ZM126.671 90.6887V90.1887C126.275 90.1887 125.655 90.3202 125.132 90.8337L125.483 91.1904L125.833 91.5471C126.127 91.258 126.473 91.1887 126.671 91.1887V90.6887ZM125.483 91.1904L125.132 90.8338C124.728 91.2304 123.423 92.3333 123.423 94.536H123.923H124.423C124.423 92.7912 125.42 91.9534 125.833 91.547L125.483 91.1904ZM123.923 94.536H123.423C123.423 95.648 123.868 96.7073 124.314 97.4959C124.763 98.2929 125.242 98.8642 125.358 99.0045L125.743 98.6846L126.127 98.3646C126.021 98.2373 125.589 97.7213 125.184 97.0044C124.775 96.2792 124.423 95.3981 124.423 94.536H123.923ZM125.743 98.6846L125.358 99.0045C125.557 99.2426 128.56 103.413 133.176 105.206L133.357 104.74L133.538 104.274C129.211 102.593 126.374 98.662 126.127 98.3646L125.743 98.6846ZM133.357 104.74L133.176 105.206C134.26 105.627 135.107 105.879 135.761 106.065L135.898 105.585L136.035 105.104C135.395 104.921 134.581 104.679 133.538 104.274L133.357 104.74ZM135.898 105.585L135.761 106.065C136.919 106.397 137.967 106.347 138.772 106.239L138.706 105.744L138.639 105.248C137.908 105.346 137.013 105.383 136.036 105.104L135.898 105.585ZM138.706 105.744L138.772 106.239C139.286 106.17 140.008 105.897 140.642 105.531C140.964 105.346 141.28 105.127 141.546 104.882C141.809 104.641 142.048 104.352 142.179 104.021L141.714 103.837L141.25 103.653C141.195 103.79 141.072 103.959 140.87 104.146C140.671 104.328 140.419 104.506 140.142 104.665C139.578 104.99 138.982 105.202 138.639 105.248L138.706 105.744ZM141.714 103.837L142.179 104.021C142.382 103.509 142.486 103.028 142.523 102.642C142.542 102.45 142.544 102.274 142.531 102.123C142.52 102.001 142.494 101.808 142.39 101.653L141.974 101.93L141.558 102.207C141.511 102.136 141.526 102.105 141.535 102.21C141.541 102.286 141.542 102.4 141.528 102.547C141.5 102.839 141.418 103.228 141.25 103.653L141.714 103.837ZM141.974 101.93L142.39 101.653C142.255 101.449 142.043 101.333 141.894 101.26C141.742 101.185 141.521 101.093 141.325 101.005L141.12 101.461L140.915 101.917C141.165 102.03 141.315 102.089 141.451 102.156C141.59 102.225 141.582 102.243 141.558 102.207L141.974 101.93ZM132.987 111.452V110.952H132.981V111.452V111.952H132.987V111.452ZM132.981 111.452L132.981 110.952C130.4 110.951 127.872 110.327 125.67 109.152L125.434 109.593L125.199 110.034C127.55 111.289 130.241 111.951 132.981 111.952L132.981 111.452ZM125.434 109.593L125.67 109.152L125.128 108.863L124.893 109.304L124.657 109.745L125.199 110.034L125.434 109.593ZM124.893 109.304L124.778 108.817L119.166 110.142L119.281 110.628L119.396 111.115L125.008 109.79L124.893 109.304ZM119.281 110.628L119.76 110.774L121.257 105.851L120.779 105.706L120.301 105.56L118.803 110.483L119.281 110.628ZM120.779 105.706L121.189 105.419L120.837 104.915L120.427 105.201L120.017 105.487L120.369 105.992L120.779 105.706ZM120.427 105.201L120.836 104.914C119.409 102.872 118.658 100.517 118.66 98.1017L118.16 98.1014L117.66 98.1012C117.658 100.727 118.475 103.282 120.017 105.487L120.427 105.201ZM118.16 98.1014L118.66 98.1017C118.663 91.071 125.039 85.2625 132.993 85.2625V84.7625V84.2625C124.589 84.2625 117.663 90.4217 117.66 98.1012L118.16 98.1014ZM132.993 84.7625L132.993 85.2625C136.837 85.2637 140.438 86.6119 143.141 89.0462L143.476 88.6747L143.81 88.3032C140.914 85.6945 137.07 84.2638 132.993 84.2625L132.993 84.7625ZM143.476 88.6747L143.141 89.0462C145.842 91.4789 147.316 94.6982 147.314 98.112L147.814 98.1122L148.314 98.1124C148.316 94.3974 146.708 90.9134 143.81 88.3032L143.476 88.6747ZM147.814 98.1122L147.314 98.112C147.311 105.143 140.934 110.952 132.987 110.952V111.452V111.952C141.385 111.952 148.311 105.792 148.314 98.1124L147.814 98.1122ZM145.606 86.7587L145.941 86.3872C142.476 83.2662 137.876 81.5536 132.987 81.5518L132.987 82.0518L132.987 82.5518C137.642 82.5535 142 84.1838 145.272 87.1302L145.606 86.7587ZM132.987 82.0518V81.5518C122.929 81.5518 114.652 88.9268 114.648 98.1002L115.148 98.1004L115.648 98.1007C115.651 89.5758 123.379 82.5518 132.987 82.5518V82.0518ZM115.148 98.1004L114.648 98.1002C114.646 101.027 115.496 103.882 117.108 106.394L117.529 106.124L117.95 105.854C116.439 103.499 115.646 100.831 115.648 98.1007L115.148 98.1004ZM117.529 106.124L117.05 105.979L114.52 114.296L114.998 114.441L115.476 114.587L118.007 106.27L117.529 106.124ZM114.998 114.441L115.113 114.928L124.57 112.696L124.455 112.209L124.34 111.723L114.883 113.955L114.998 114.441ZM124.455 112.209L124.235 112.658C126.91 113.971 129.92 114.662 132.98 114.663L132.98 114.163L132.98 113.663C130.069 113.662 127.21 113.005 124.675 111.76L124.455 112.209ZM132.98 114.163V114.663H132.987V114.163V113.663H132.98V114.163ZM132.987 114.163V114.663C143.044 114.663 151.322 107.287 151.326 98.1135L150.826 98.1133L150.326 98.1131C150.322 106.638 142.594 113.663 132.987 113.663V114.163ZM150.826 98.1133L151.326 98.1135C151.328 93.6744 149.407 89.5096 145.941 86.3872L145.606 86.7587L145.271 87.1302C148.541 90.0751 150.328 93.9752 150.326 98.1131L150.826 98.1133Z" fill="url(#paint3_linear_821_10781)" mask="url(#path-5-inside-1_821_10781)"/>
</g>
<defs>
<filter id="filter0_d_821_10781" x="0" y="0" width="264.157" height="258" filterUnits="userSpaceOnUse" color-interpolation-filters="sRGB">
<feFlood flood-opacity="0" result="BackgroundImageFix"/>
<feColorMatrix in="SourceAlpha" type="matrix" values="0 0 0 0 0 0 0 0 0 0 0 0 0 0 0 0 0 0 127 0" result="hardAlpha"/>
<feOffset dy="30"/>
<feGaussianBlur stdDeviation="50"/>
<feComposite in2="hardAlpha" operator="out"/>
<feColorMatrix type="matrix" values="0 0 0 0 0 0 0 0 0 0 0 0 0 0 0 0 0 0 0.15 0"/>
<feBlend mode="normal" in2="BackgroundImageFix" result="effect1_dropShadow_821_10781"/>
<feBlend mode="normal" in="SourceGraphic" in2="effect1_dropShadow_821_10781" result="shape"/>
</filter>
<filter id="filter1_f_821_10781" x="95.833" y="65.7529" width="72.4912" height="66.4932" filterUnits="userSpaceOnUse" color-interpolation-filters="sRGB">
<feFlood flood-opacity="0" result="BackgroundImageFix"/>
<feBlend mode="normal" in="SourceGraphic" in2="BackgroundImageFix" result="shape"/>
<feGaussianBlur stdDeviation="2.5" result="effect1_foregroundBlur_821_10781"/>
</filter>
<filter id="filter2_f_821_10781" x="101.665" y="72.8052" width="55.8281" height="52.3896" filterUnits="userSpaceOnUse" color-interpolation-filters="sRGB">
<feFlood flood-opacity="0" result="BackgroundImageFix"/>
<feBlend mode="normal" in="SourceGraphic" in2="BackgroundImageFix" result="shape"/>
<feGaussianBlur stdDeviation="5" result="effect1_foregroundBlur_821_10781"/>
</filter>
<linearGradient id="paint0_linear_821_10781" x1="130.829" y1="126.493" x2="131.85" y2="73.1969" gradientUnits="userSpaceOnUse">
<stop stop-color="#00A83F"/>
<stop offset="1" stop-color="#52EF8C"/>
</linearGradient>
<linearGradient id="paint1_linear_821_10781" x1="132.078" y1="76.9672" x2="132.078" y2="121.032" gradientUnits="userSpaceOnUse">
<stop stop-color="#25D366" stop-opacity="0.72"/>
<stop offset="1" stop-color="#25D366"/>
</linearGradient>
<linearGradient id="paint2_linear_821_10781" x1="132.078" y1="70.7529" x2="132.078" y2="127.246" gradientUnits="userSpaceOnUse">
<stop stop-color="#D6FFE5"/>
<stop offset="1" stop-color="#008D35"/>
</linearGradient>
<linearGradient id="paint3_linear_821_10781" x1="132.912" y1="82.0518" x2="132.912" y2="114.441" gradientUnits="userSpaceOnUse">
<stop stop-color="white"/>
<stop offset="1" stop-color="white" stop-opacity="0"/>
</linearGradient>
</defs>
</svg>
