<svg width="265" height="264" viewBox="0 0 265 264" fill="none" xmlns="http://www.w3.org/2000/svg">
<g filter="url(#filter0_d_853_9212)">
<rect x="100" y="70" width="65" height="64" rx="32" fill="url(#paint0_linear_853_9212)"/>
<g filter="url(#filter1_f_853_9212)">
<rect x="100.844" y="70.8308" width="63.3117" height="62.3377" rx="31.1688" fill="url(#paint1_linear_853_9212)"/>
<rect x="101.094" y="71.0808" width="62.8117" height="61.8377" rx="30.9188" stroke="url(#paint2_linear_853_9212)" stroke-width="0.5"/>
</g>
<g filter="url(#filter2_f_853_9212)">
<path fill-rule="evenodd" clip-rule="evenodd" d="M138.283 105.547C137.832 105.326 135.612 104.255 135.198 104.108C134.784 103.96 134.483 103.886 134.182 104.329C133.881 104.772 133.015 105.769 132.752 106.064C132.488 106.36 132.225 106.397 131.773 106.175C131.322 105.954 129.867 105.486 128.142 103.979C126.799 102.805 125.893 101.356 125.629 100.913C125.366 100.47 125.601 100.231 125.827 100.01C126.031 99.8117 126.279 99.4931 126.505 99.2346C126.731 98.9763 126.806 98.7916 126.956 98.4964C127.107 98.201 127.032 97.9427 126.919 97.7212C126.806 97.4997 125.903 95.3215 125.526 94.4353C125.16 93.5726 124.788 93.6894 124.51 93.6757C124.247 93.663 123.946 93.6602 123.645 93.6602C123.344 93.6602 122.855 93.771 122.441 94.2139C122.027 94.6569 120.86 95.7276 120.86 97.9056C120.86 100.084 122.478 102.188 122.704 102.483C122.93 102.779 125.888 107.248 130.419 109.165C131.496 109.621 132.337 109.893 132.993 110.097C134.075 110.434 135.059 110.387 135.837 110.273C136.705 110.146 138.509 109.202 138.886 108.169C139.262 107.135 139.262 106.249 139.149 106.064C139.036 105.88 138.735 105.769 138.283 105.547V105.547ZM130.044 116.572H130.038C127.342 116.571 124.698 115.861 122.392 114.52L121.843 114.201L116.158 115.663L117.675 110.231L117.318 109.674C115.814 107.33 115.02 104.621 115.021 101.84C115.025 93.7239 121.764 87.121 130.05 87.121C134.062 87.1223 137.834 88.6555 140.67 91.4379C143.506 94.2202 145.067 97.9186 145.065 101.852C145.062 109.968 138.323 116.572 130.044 116.572V116.572ZM142.828 89.3236C139.416 85.9761 134.878 84.1317 130.043 84.1298C120.082 84.1298 111.974 92.0741 111.97 101.839C111.969 104.96 112.801 108.007 114.382 110.693L111.818 119.87L121.399 117.407C124.039 118.818 127.011 119.562 130.036 119.563H130.044C140.005 119.563 148.113 111.618 148.117 101.853C148.119 97.1208 146.241 92.6712 142.828 89.3236" fill="#008F36"/>
</g>
<mask id="path-5-inside-1_853_9212" fill="white">
<path fill-rule="evenodd" clip-rule="evenodd" d="M141.66 104.716C141.209 104.495 138.989 103.424 138.575 103.276C138.161 103.129 137.86 103.055 137.559 103.498C137.258 103.941 136.392 104.938 136.129 105.233C135.865 105.528 135.602 105.565 135.15 105.344C134.699 105.122 133.243 104.655 131.519 103.147C130.176 101.974 129.27 100.525 129.006 100.082C128.743 99.6389 128.978 99.3994 129.204 99.1787C129.408 98.9805 129.656 98.6619 129.882 98.4034C130.108 98.1452 130.183 97.9604 130.333 97.6652C130.484 97.3699 130.409 97.1115 130.296 96.89C130.183 96.6685 129.28 94.4903 128.903 93.6042C128.537 92.7414 128.165 92.8582 127.887 92.8446C127.624 92.8318 127.323 92.8291 127.022 92.8291C126.721 92.8291 126.231 92.9398 125.818 93.3827C125.404 93.8257 124.237 94.8964 124.237 97.0744C124.237 99.2527 125.855 101.357 126.081 101.652C126.307 101.948 129.265 106.417 133.796 108.334C134.873 108.79 135.714 109.062 136.37 109.266C137.452 109.603 138.436 109.555 139.214 109.441C140.082 109.315 141.886 108.371 142.263 107.337C142.639 106.304 142.639 105.418 142.526 105.233C142.413 105.048 142.112 104.938 141.66 104.716V104.716ZM133.421 115.741H133.414C130.719 115.74 128.075 115.03 125.769 113.689L125.22 113.37L119.535 114.831L121.052 109.399L120.695 108.842C119.191 106.499 118.397 103.79 118.398 101.009C118.402 92.8927 125.141 86.2898 133.427 86.2898C137.439 86.2911 141.211 87.8243 144.047 90.6067C146.883 93.389 148.444 97.0874 148.442 101.021C148.439 109.137 141.7 115.741 133.421 115.741V115.741ZM146.205 88.4925C142.793 85.1449 138.255 83.3005 133.42 83.2986C123.459 83.2986 115.351 91.2429 115.347 101.008C115.345 104.129 116.178 107.176 117.759 109.862L115.195 119.039L124.776 116.576C127.416 117.987 130.388 118.731 133.413 118.732H133.421C143.381 118.732 151.49 110.787 151.494 101.022C151.496 96.2896 149.618 91.84 146.205 88.4925"/>
</mask>
<path fill-rule="evenodd" clip-rule="evenodd" d="M141.66 104.716C141.209 104.495 138.989 103.424 138.575 103.276C138.161 103.129 137.86 103.055 137.559 103.498C137.258 103.941 136.392 104.938 136.129 105.233C135.865 105.528 135.602 105.565 135.15 105.344C134.699 105.122 133.243 104.655 131.519 103.147C130.176 101.974 129.27 100.525 129.006 100.082C128.743 99.6389 128.978 99.3994 129.204 99.1787C129.408 98.9805 129.656 98.6619 129.882 98.4034C130.108 98.1452 130.183 97.9604 130.333 97.6652C130.484 97.3699 130.409 97.1115 130.296 96.89C130.183 96.6685 129.28 94.4903 128.903 93.6042C128.537 92.7414 128.165 92.8582 127.887 92.8446C127.624 92.8318 127.323 92.8291 127.022 92.8291C126.721 92.8291 126.231 92.9398 125.818 93.3827C125.404 93.8257 124.237 94.8964 124.237 97.0744C124.237 99.2527 125.855 101.357 126.081 101.652C126.307 101.948 129.265 106.417 133.796 108.334C134.873 108.79 135.714 109.062 136.37 109.266C137.452 109.603 138.436 109.555 139.214 109.441C140.082 109.315 141.886 108.371 142.263 107.337C142.639 106.304 142.639 105.418 142.526 105.233C142.413 105.048 142.112 104.938 141.66 104.716V104.716ZM133.421 115.741H133.414C130.719 115.74 128.075 115.03 125.769 113.689L125.22 113.37L119.535 114.831L121.052 109.399L120.695 108.842C119.191 106.499 118.397 103.79 118.398 101.009C118.402 92.8927 125.141 86.2898 133.427 86.2898C137.439 86.2911 141.211 87.8243 144.047 90.6067C146.883 93.389 148.444 97.0874 148.442 101.021C148.439 109.137 141.7 115.741 133.421 115.741V115.741ZM146.205 88.4925C142.793 85.1449 138.255 83.3005 133.42 83.2986C123.459 83.2986 115.351 91.2429 115.347 101.008C115.345 104.129 116.178 107.176 117.759 109.862L115.195 119.039L124.776 116.576C127.416 117.987 130.388 118.731 133.413 118.732H133.421C143.381 118.732 151.49 110.787 151.494 101.022C151.496 96.2896 149.618 91.84 146.205 88.4925" fill="white" fill-opacity="0.9"/>
<path d="M138.575 103.276L138.743 102.806L138.743 102.806L138.575 103.276ZM137.559 103.498L137.145 103.217L137.145 103.217L137.559 103.498ZM136.129 105.233L135.755 104.9L135.755 104.9L136.129 105.233ZM135.15 105.344L135.371 104.895L135.37 104.895L135.15 105.344ZM131.519 103.147L131.848 102.771L131.848 102.771L131.519 103.147ZM129.006 100.082L129.436 99.8264L129.436 99.8263L129.006 100.082ZM129.204 99.1787L128.855 98.8208L128.855 98.8209L129.204 99.1787ZM129.882 98.4034L129.505 98.0743L129.505 98.0745L129.882 98.4034ZM130.333 97.6652L130.779 97.8924L130.779 97.8922L130.333 97.6652ZM130.296 96.89L129.85 97.1169L129.85 97.1173L130.296 96.89ZM128.903 93.6042L129.364 93.4087L129.364 93.4086L128.903 93.6042ZM127.887 92.8446L127.912 92.3452L127.912 92.3452L127.887 92.8446ZM125.818 93.3827L125.452 93.0413L125.452 93.0413L125.818 93.3827ZM133.796 108.334L133.99 107.873L133.99 107.873L133.796 108.334ZM136.37 109.266L136.519 108.789L136.518 108.789L136.37 109.266ZM139.214 109.441L139.142 108.947L139.142 108.947L139.214 109.441ZM142.263 107.337L142.732 107.509L142.732 107.508L142.263 107.337ZM133.414 115.741L133.414 116.241H133.414V115.741ZM125.769 113.689L125.517 114.121L125.517 114.121L125.769 113.689ZM125.22 113.37L125.471 112.938L125.294 112.835L125.096 112.886L125.22 113.37ZM119.535 114.831L119.053 114.697L118.82 115.531L119.659 115.316L119.535 114.831ZM121.052 109.399L121.534 109.534L121.594 109.318L121.473 109.13L121.052 109.399ZM120.695 108.842L121.116 108.573L121.116 108.572L120.695 108.842ZM118.398 101.009L118.898 101.009L118.898 101.009L118.398 101.009ZM133.427 86.2898L133.427 85.7898H133.427V86.2898ZM144.047 90.6067L144.397 90.2498L144.047 90.6067ZM148.442 101.021L148.942 101.021L148.942 101.021L148.442 101.021ZM133.42 83.2986L133.421 82.7986H133.42V83.2986ZM115.347 101.008L114.847 101.007L114.847 101.007L115.347 101.008ZM117.759 109.862L118.241 109.996L118.298 109.791L118.19 109.608L117.759 109.862ZM115.195 119.039L114.714 118.904L114.481 119.739L115.32 119.523L115.195 119.039ZM124.776 116.576L125.012 116.135L124.84 116.043L124.652 116.092L124.776 116.576ZM133.413 118.732L133.413 119.232H133.413V118.732ZM151.494 101.022L151.994 101.022L151.994 101.022L151.494 101.022ZM141.66 104.716L141.881 104.267C141.652 104.155 140.982 103.831 140.317 103.517C139.668 103.209 138.979 102.89 138.743 102.806L138.575 103.276L138.406 103.747C138.584 103.811 139.212 104.1 139.89 104.421C140.551 104.734 141.217 105.056 141.44 105.165L141.66 104.716ZM138.575 103.276L138.743 102.806C138.55 102.737 138.265 102.636 137.969 102.669C137.618 102.708 137.351 102.914 137.145 103.217L137.559 103.498L137.972 103.779C138.023 103.704 138.057 103.676 138.07 103.667C138.078 103.662 138.078 103.663 138.08 103.663C138.088 103.662 138.114 103.661 138.173 103.674C138.233 103.688 138.305 103.711 138.407 103.747L138.575 103.276ZM137.559 103.498L137.145 103.217C136.866 103.627 136.025 104.598 135.755 104.9L136.129 105.233L136.502 105.566C136.759 105.277 137.649 104.255 137.972 103.779L137.559 103.498ZM136.129 105.233L135.755 104.9C135.713 104.948 135.684 104.969 135.67 104.978C135.658 104.985 135.654 104.985 135.651 104.986C135.637 104.987 135.563 104.99 135.371 104.895L135.15 105.344L134.93 105.793C135.189 105.92 135.472 106.014 135.769 105.979C136.086 105.941 136.321 105.768 136.502 105.566L136.129 105.233ZM135.15 105.344L135.37 104.895C134.87 104.649 133.508 104.222 131.848 102.771L131.519 103.147L131.19 103.524C132.979 105.088 134.527 105.595 134.93 105.793L135.15 105.344ZM131.519 103.147L131.848 102.771C130.565 101.65 129.691 100.255 129.436 99.8264L129.006 100.082L128.577 100.337C128.849 100.795 129.787 102.298 131.19 103.524L131.519 103.147ZM129.006 100.082L129.436 99.8263C129.397 99.7601 129.391 99.7266 129.39 99.7205C129.39 99.7175 129.39 99.7181 129.39 99.7211C129.39 99.7239 129.389 99.7253 129.389 99.7242C129.391 99.7205 129.398 99.7033 129.427 99.6685C129.457 99.6319 129.495 99.5933 129.554 99.5366L129.204 99.1787L128.855 98.8209C128.756 98.9175 128.554 99.1065 128.454 99.3696C128.336 99.6828 128.384 100.013 128.577 100.337L129.006 100.082ZM129.204 99.1787L129.553 99.5367C129.774 99.3212 130.065 98.9536 130.258 98.7324L129.882 98.4034L129.505 98.0745C129.247 98.3702 129.041 98.6397 128.855 98.8208L129.204 99.1787ZM129.882 98.4034L130.258 98.7326C130.534 98.4166 130.64 98.1646 130.779 97.8924L130.333 97.6652L129.888 97.4381C129.726 97.7563 129.681 97.8737 129.505 98.0743L129.882 98.4034ZM130.333 97.6652L130.779 97.8922C131.035 97.3896 130.886 96.947 130.741 96.6628L130.296 96.89L129.85 97.1173C129.893 97.201 129.911 97.2595 129.916 97.3042C129.92 97.3399 129.917 97.3802 129.888 97.4382L130.333 97.6652ZM130.296 96.89L130.741 96.6631C130.696 96.5739 130.453 96.0013 130.159 95.3027C129.873 94.6217 129.552 93.8529 129.364 93.4087L128.903 93.6042L128.443 93.7996C128.631 94.2416 128.95 95.005 129.237 95.69C129.518 96.3574 129.783 96.9847 129.85 97.1169L130.296 96.89ZM128.903 93.6042L129.364 93.4086C129.157 92.9228 128.905 92.6066 128.572 92.4522C128.281 92.3174 127.93 92.346 127.912 92.3452L127.887 92.8446L127.863 93.344C127.914 93.3465 127.966 93.3459 127.998 93.3457C128.036 93.3455 128.061 93.3456 128.084 93.3469C128.124 93.3492 128.141 93.3546 128.152 93.3597C128.165 93.366 128.283 93.4227 128.443 93.7997L128.903 93.6042ZM127.887 92.8446L127.912 92.3452C127.636 92.3317 127.324 92.3291 127.022 92.3291V92.8291V93.3291C127.321 93.3291 127.613 93.3318 127.863 93.344L127.887 92.8446ZM127.022 92.8291V92.3291C126.609 92.3291 125.978 92.479 125.452 93.0413L125.818 93.3827L126.183 93.7241C126.485 93.4006 126.832 93.3291 127.022 93.3291V92.8291ZM125.818 93.3827L125.452 93.0413C125.037 93.4856 123.737 94.6841 123.737 97.0744H124.237H124.737C124.737 95.1087 125.77 94.1658 126.183 93.724L125.818 93.3827ZM124.237 97.0744H123.737C123.737 98.2783 124.181 99.4321 124.63 100.299C125.083 101.174 125.566 101.801 125.684 101.956L126.081 101.652L126.478 101.348C126.371 101.208 125.931 100.635 125.518 99.8393C125.102 99.0361 124.737 98.0487 124.737 97.0744H124.237ZM126.081 101.652L125.684 101.956C125.883 102.217 128.923 106.815 133.601 108.794L133.796 108.334L133.99 107.873C129.608 106.019 126.73 101.678 126.478 101.348L126.081 101.652ZM133.796 108.334L133.601 108.794C134.7 109.26 135.558 109.537 136.221 109.744L136.37 109.266L136.518 108.789C135.87 108.587 135.046 108.32 133.99 107.873L133.796 108.334ZM136.37 109.266L136.221 109.744C137.401 110.111 138.468 110.056 139.287 109.936L139.214 109.441L139.142 108.947C138.404 109.055 137.503 109.095 136.519 108.789L136.37 109.266ZM139.214 109.441L139.287 109.936C139.813 109.859 140.547 109.556 141.189 109.153C141.817 108.758 142.485 108.189 142.732 107.509L142.263 107.337L141.793 107.166C141.664 107.52 141.242 107.939 140.657 108.306C140.085 108.665 139.484 108.897 139.142 108.947L139.214 109.441ZM142.263 107.337L142.732 107.508C142.936 106.95 143.039 106.427 143.076 106.011C143.094 105.803 143.096 105.614 143.084 105.455C143.073 105.323 143.047 105.128 142.952 104.972L142.526 105.233L142.099 105.494C142.061 105.431 142.077 105.415 142.087 105.534C142.094 105.625 142.094 105.757 142.08 105.923C142.05 106.254 141.966 106.691 141.793 107.166L142.263 107.337ZM142.526 105.233L142.952 104.972C142.821 104.758 142.612 104.631 142.457 104.548C142.303 104.465 142.078 104.364 141.881 104.267L141.66 104.716L141.44 105.165C141.695 105.29 141.846 105.355 141.983 105.429C142.12 105.502 142.118 105.524 142.099 105.494L142.526 105.233ZM133.421 115.741V115.241H133.414V115.741V116.241H133.421V115.741ZM133.414 115.741L133.415 115.241C130.806 115.24 128.249 114.553 126.02 113.257L125.769 113.689L125.517 114.121C127.901 115.507 130.631 116.24 133.414 116.241L133.414 115.741ZM125.769 113.689L126.02 113.257L125.471 112.938L125.22 113.37L124.969 113.802L125.517 114.121L125.769 113.689ZM125.22 113.37L125.096 112.886L119.41 114.347L119.535 114.831L119.659 115.316L125.345 113.854L125.22 113.37ZM119.535 114.831L120.016 114.966L121.534 109.534L121.052 109.399L120.571 109.265L119.053 114.697L119.535 114.831ZM121.052 109.399L121.473 109.13L121.116 108.573L120.695 108.842L120.274 109.112L120.631 109.669L121.052 109.399ZM120.695 108.842L121.116 108.572C119.664 106.309 118.897 103.694 118.898 101.009L118.398 101.009L117.898 101.008C117.897 103.886 118.719 106.688 120.274 109.112L120.695 108.842ZM118.398 101.009L118.898 101.009C118.902 93.1785 125.407 86.7898 133.427 86.7898V86.2898V85.7898C124.874 85.7898 117.902 92.6069 117.898 101.008L118.398 101.009ZM133.427 86.2898L133.426 86.7898C137.309 86.7911 140.955 88.2739 143.697 90.9636L144.047 90.6067L144.397 90.2498C141.466 87.3747 137.569 85.7912 133.427 85.7898L133.427 86.2898ZM144.047 90.6067L143.697 90.9636C146.438 93.6529 147.944 97.223 147.942 101.02L148.442 101.021L148.942 101.021C148.944 96.9517 147.328 93.1251 144.397 90.2498L144.047 90.6067ZM148.442 101.021L147.942 101.02C147.939 108.852 141.434 115.241 133.421 115.241V115.741V116.241C141.967 116.241 148.939 109.423 148.942 101.021L148.442 101.021ZM146.205 88.4925L146.556 88.1355C143.049 84.6952 138.385 82.8006 133.421 82.7986L133.42 83.2986L133.42 83.7986C138.126 83.8005 142.537 85.5946 145.855 88.8494L146.205 88.4925ZM133.42 83.2986V82.7986C123.192 82.7986 114.851 90.9573 114.847 101.007L115.347 101.008L115.847 101.008C115.851 91.5285 123.725 83.7986 133.42 83.7986V83.2986ZM115.347 101.008L114.847 101.007C114.845 104.218 115.702 107.353 117.328 110.115L117.759 109.862L118.19 109.608C116.654 106.999 115.846 104.04 115.847 101.008L115.347 101.008ZM117.759 109.862L117.278 109.727L114.714 118.904L115.195 119.039L115.677 119.173L118.241 109.996L117.759 109.862ZM115.195 119.039L115.32 119.523L124.901 117.06L124.776 116.576L124.652 116.092L115.071 118.555L115.195 119.039ZM124.776 116.576L124.541 117.017C127.253 118.467 130.307 119.231 133.413 119.232L133.413 118.732L133.413 118.232C130.47 118.231 127.579 117.507 125.012 116.135L124.776 116.576ZM133.413 118.732V119.232H133.421V118.732V118.232H133.413V118.732ZM133.421 118.732V119.232C143.648 119.232 151.99 111.072 151.994 101.022L151.494 101.022L150.994 101.022C150.99 110.501 143.115 118.232 133.421 118.232V118.732ZM151.494 101.022L151.994 101.022C151.996 96.1539 150.063 91.5761 146.556 88.1355L146.205 88.4925L145.855 88.8494C149.173 92.1039 150.996 96.4252 150.994 101.022L151.494 101.022Z" fill="url(#paint3_linear_853_9212)" mask="url(#path-5-inside-1_853_9212)"/>
</g>
<defs>
<filter id="filter0_d_853_9212" x="0" y="0" width="265" height="264" filterUnits="userSpaceOnUse" color-interpolation-filters="sRGB">
<feFlood flood-opacity="0" result="BackgroundImageFix"/>
<feColorMatrix in="SourceAlpha" type="matrix" values="0 0 0 0 0 0 0 0 0 0 0 0 0 0 0 0 0 0 127 0" result="hardAlpha"/>
<feOffset dy="30"/>
<feGaussianBlur stdDeviation="50"/>
<feComposite in2="hardAlpha" operator="out"/>
<feColorMatrix type="matrix" values="0 0 0 0 0 0 0 0 0 0 0 0 0 0 0 0 0 0 0.15 0"/>
<feBlend mode="normal" in2="BackgroundImageFix" result="effect1_dropShadow_853_9212"/>
<feBlend mode="normal" in="SourceGraphic" in2="effect1_dropShadow_853_9212" result="shape"/>
</filter>
<filter id="filter1_f_853_9212" x="95.8438" y="65.8308" width="73.3115" height="72.3376" filterUnits="userSpaceOnUse" color-interpolation-filters="sRGB">
<feFlood flood-opacity="0" result="BackgroundImageFix"/>
<feBlend mode="normal" in="SourceGraphic" in2="BackgroundImageFix" result="shape"/>
<feGaussianBlur stdDeviation="2.5" result="effect1_foregroundBlur_853_9212"/>
</filter>
<filter id="filter2_f_853_9212" x="101.818" y="74.1298" width="56.2988" height="55.7402" filterUnits="userSpaceOnUse" color-interpolation-filters="sRGB">
<feFlood flood-opacity="0" result="BackgroundImageFix"/>
<feBlend mode="normal" in="SourceGraphic" in2="BackgroundImageFix" result="shape"/>
<feGaussianBlur stdDeviation="5" result="effect1_foregroundBlur_853_9212"/>
</filter>
<linearGradient id="paint0_linear_853_9212" x1="131.234" y1="132.338" x2="132.461" y2="73.5317" gradientUnits="userSpaceOnUse">
<stop stop-color="#00A83F"/>
<stop offset="1" stop-color="#52EF8C"/>
</linearGradient>
<linearGradient id="paint1_linear_853_9212" x1="132.5" y1="77.6879" x2="132.5" y2="126.311" gradientUnits="userSpaceOnUse">
<stop stop-color="#25D366" stop-opacity="0.72"/>
<stop offset="1" stop-color="#25D366"/>
</linearGradient>
<linearGradient id="paint2_linear_853_9212" x1="132.5" y1="70.8308" x2="132.5" y2="133.168" gradientUnits="userSpaceOnUse">
<stop stop-color="#D6FFE5"/>
<stop offset="1" stop-color="#008D35"/>
</linearGradient>
<linearGradient id="paint3_linear_853_9212" x1="133.345" y1="83.2986" x2="133.345" y2="119.039" gradientUnits="userSpaceOnUse">
<stop stop-color="white"/>
<stop offset="1" stop-color="white" stop-opacity="0"/>
</linearGradient>
</defs>
</svg>
